<svg width="1004" height="104" viewBox="0 0 5356 556" fill="none" xmlns="http://www.w3.org/2000/svg"
  xmlns:xlink="http://www.w3.org/1999/xlink" version="1.1">

  <g transform="translate(0, 0)">
    <svg xmlns="http://www.w3.org/2000/svg" width="256" height="256" fill="none" viewBox="0 0 256 256">
      <rect width="256" height="256" fill="#242938" rx="60" />
      <path fill="#CCC"
        d="M216.042 167.814V74.7425L135.38 28.2068V63.9876L167.025 82.1882C168.266 82.8086 168.266 84.6701 167.025 85.2905L129.382 107.007C128.348 107.628 126.901 107.628 125.866 107.007L88.2243 85.0837C86.9834 84.4632 86.9834 82.6018 88.2243 81.9813L119.869 63.7807V28L39.2068 74.5356V167.814V167.4V167.814L70.2305 150.027V113.419C70.2305 112.178 71.6783 111.144 72.9193 111.971L110.561 133.688C111.596 134.308 112.423 135.549 112.423 136.79V180.223C112.423 181.464 110.975 182.498 109.734 181.671L78.0899 163.47L47.0661 181.257L127.728 227.793L208.39 181.257L177.366 163.47L145.722 181.671C144.688 182.291 143.033 181.464 143.033 180.223V136.79C143.033 135.549 143.653 134.308 144.894 133.688L182.537 111.971C183.571 111.35 185.225 112.178 185.225 113.419V150.027L216.042 167.814Z" />
      <path fill="#A6A6A6"
        d="M127.521 228L208.183 181.464L177.159 163.677L145.515 181.878C144.481 182.499 142.826 181.671 142.826 180.43V136.997C142.826 135.756 143.447 134.515 144.688 133.895L182.33 112.178C183.364 111.558 185.019 112.385 185.019 113.626V150.234L216.042 168.021V74.7427L127.521 125.828V228Z" />
      <path fill="#fff"
        d="M135.174 28V63.7807L166.818 81.9813C168.059 82.6018 168.059 84.4632 166.818 85.0837L129.176 106.8C128.142 107.421 126.694 107.421 125.66 106.8L88.2243 85.0837C86.9834 84.4632 86.9834 82.6018 88.2243 81.9813L119.869 63.7807V28L39.2068 74.5356L127.728 125.621L216.249 74.5356L135.174 28Z" />
      <path fill="#CCC"
        d="M109.32 181.671L77.6763 163.471L46.6525 181.258L127.314 227.793V125.622L39 74.7427V168.021V167.607V168.021L70.0237 150.234V113.626C70.0237 112.385 71.4715 111.351 72.7125 112.178L110.355 133.895C111.389 134.515 112.216 135.756 112.216 136.997V180.43C112.009 181.464 110.561 182.292 109.32 181.671Z" />
    </svg>
  </g>

  <g transform="translate(300, 0)">
    <svg width="256" height="256" viewBox="0 0 256 256" fill="none" xmlns="http://www.w3.org/2000/svg">
      <rect width="256" height="256" rx="60" fill="#242938" />
      <mask id="mask0_217_156" style="mask-type:alpha" maskUnits="userSpaceOnUse" x="28" y="28" width="200"
        height="200">
        <path
          d="M64.6656 197.166L31.3344 172.166C30.2952 171.394 29.4519 170.389 28.8727 169.23C28.2935 168.072 27.9946 166.795 28.0001 165.5V90.5001C27.9946 89.2054 28.2935 87.9276 28.8727 86.7698C29.4519 85.6119 30.2952 84.6065 31.3344 83.8345L64.6656 58.8345C63.7702 59.6752 63.0936 60.7218 62.6944 61.8835C62.2952 63.0451 62.1856 64.2866 62.375 65.5001V190.5C62.1856 191.714 62.2952 192.955 62.6944 194.117C63.0936 195.278 63.7702 196.325 64.6656 197.166Z"
          fill="white" />
        <path
          d="M224.29 62.7093C222.917 61.8073 221.308 61.3291 219.665 61.3344C218.601 61.3258 217.544 61.5273 216.558 61.9274C215.571 62.3274 214.673 62.9181 213.915 63.6656L213.334 64.25L146.834 128L110.04 163.291L75.9999 195.915L75.4156 196.5C74.6583 197.248 73.7604 197.84 72.7736 198.241C71.7868 198.641 70.7305 198.843 69.6656 198.834C67.8628 198.83 66.1092 198.246 64.6656 197.165L31.3344 172.166C33.0279 173.437 35.1424 174.016 37.2476 173.784C39.3528 173.552 41.2902 172.526 42.6656 170.915L79.6656 127.959L110.04 92.7093L163.25 30.9156C164.022 30.0005 164.985 29.2654 166.072 28.7617C167.159 28.2581 168.343 27.9981 169.541 28C171.184 27.9947 172.792 28.4729 174.165 29.375L224.29 62.7093Z"
          fill="white" />
        <path
          d="M224.29 193.29L174.291 226.624C172.589 227.735 170.545 228.195 168.532 227.92C166.52 227.644 164.674 226.651 163.334 225.125L110.04 163.291L79.6656 127.959L42.6656 85.0405C41.278 83.4462 39.3387 82.4358 37.2369 82.2121C35.1352 81.9883 33.0266 82.5679 31.3344 83.8344L64.6656 58.8344C66.1092 57.7545 67.8628 57.1692 69.6656 57.1656C70.7305 57.1566 71.7868 57.3582 72.7736 57.7588C73.7604 58.1595 74.6583 58.7512 75.4156 59.5L75.9999 60.0843L110.04 92.7094L146.834 128L213.334 191.75L213.915 192.334C214.673 193.082 215.571 193.672 216.558 194.072C217.544 194.472 218.601 194.674 219.665 194.665C221.308 194.671 222.917 194.193 224.29 193.29Z"
          fill="white" />
        <path
          d="M228 69.6655V186.334C228.001 187.709 227.663 189.064 227.016 190.276C226.369 191.49 225.433 192.525 224.29 193.29L174.291 226.624C175.433 225.859 176.369 224.823 177.017 223.609C177.663 222.395 178 221.041 177.999 219.665V36.3343C177.981 34.9486 177.622 33.5889 176.953 32.3751C176.284 31.1613 175.327 30.1309 174.165 29.375L224.29 62.7093C225.429 63.4774 226.364 64.5131 227.011 65.7258C227.658 66.9385 227.997 68.2911 228 69.6655Z"
          fill="white" />
      </mask>
      <g mask="url(#mask0_217_156)">
        <path
          d="M64.6656 197.165L31.3344 172.166C30.2952 171.394 29.4519 170.387 28.8727 169.23C28.2935 168.072 27.9946 166.794 28.0001 165.5V90.4999C27.9946 89.2052 28.2935 87.9273 28.8727 86.7696C29.4519 85.6117 30.2952 84.6062 31.3344 83.8342L64.6656 58.8342C63.7702 59.675 63.0936 60.7216 62.6944 61.8832C62.2952 63.0449 62.1856 64.2863 62.375 65.4999V190.5C62.1856 191.714 62.2952 192.955 62.6944 194.117C63.0936 195.278 63.7702 196.324 64.6656 197.165Z"
          fill="#5E438F" />
        <g filter="url(#filter0_dd_217_156)">
          <path
            d="M224.289 62.7093C222.917 61.8073 221.308 61.3291 219.665 61.3344C218.601 61.3258 217.544 61.5273 216.557 61.9274C215.571 62.3274 214.673 62.9181 213.915 63.6656L213.334 64.25L177.914 98.2093L146.834 128L110.04 163.291L75.9993 195.915L75.4151 196.5C74.6577 197.248 73.7598 197.84 72.7731 198.241C71.7862 198.641 70.73 198.843 69.665 198.834C67.8622 198.83 66.1087 198.246 64.665 197.165L31.3338 172.166C33.0272 173.437 35.1418 174.016 37.247 173.784C39.3522 173.552 41.2897 172.526 42.6651 170.915L61.3338 149.25L79.665 127.959L110.04 92.7093L163.249 30.9156C164.022 30.0005 164.985 29.2654 166.072 28.7617C167.158 28.2581 168.343 27.9981 169.539 28C171.183 27.9947 172.791 28.4729 174.165 29.375L224.289 62.7093Z"
            fill="url(#paint0_linear_217_156)" />
        </g>
        <g filter="url(#filter1_dd_217_156)">
          <path
            d="M224.289 193.29L174.29 226.625C172.589 227.736 170.545 228.195 168.532 227.92C166.519 227.644 164.674 226.652 163.334 225.125L110.04 163.291L79.665 127.959L61.3338 106.709L42.6651 85.0407C41.2774 83.4464 39.338 82.436 37.2363 82.2122C35.1347 81.9884 33.026 82.5681 31.3338 83.8344L64.665 58.8345C66.1087 57.7546 67.8622 57.1693 69.665 57.1658C70.73 57.1568 71.7862 57.3584 72.7731 57.759C73.7598 58.1596 74.6577 58.7514 75.4151 59.5002L75.9993 60.0845L110.04 92.7094L146.834 128L177.958 157.835L213.334 191.75L213.915 192.335C214.673 193.082 215.571 193.672 216.557 194.072C217.544 194.472 218.601 194.674 219.665 194.665C221.308 194.671 222.917 194.192 224.289 193.29Z"
            fill="url(#paint1_linear_217_156)" />
        </g>
        <g filter="url(#filter2_dd_217_156)">
          <path
            d="M228 69.6653V186.333C228.001 187.709 227.663 189.063 227.016 190.277C226.369 191.489 225.433 192.525 224.29 193.29L174.29 226.624C175.433 225.859 176.369 224.823 177.015 223.609C177.663 222.395 178 221.041 177.999 219.665V36.3341C177.981 34.9485 177.622 33.5886 176.953 32.3748C176.284 31.161 175.327 30.1307 174.165 29.3748L224.29 62.709C225.429 63.4771 226.363 64.5129 227.011 65.7256C227.657 66.9383 227.997 68.291 228 69.6653Z"
            fill="url(#paint2_linear_217_156)" />
        </g>
      </g>
      <defs>
        <filter id="filter0_dd_217_156" x="26.1529" y="24.1143" width="203.317" height="181.196"
          filterUnits="userSpaceOnUse" color-interpolation-filters="sRGB">
          <feFlood flood-opacity="0" result="BackgroundImageFix" />
          <feColorMatrix in="SourceAlpha" type="matrix" values="0 0 0 0 0 0 0 0 0 0 0 0 0 0 0 0 0 0 127 0"
            result="hardAlpha" />
          <feOffset dy="0.246095" />
          <feGaussianBlur stdDeviation="0.246095" />
          <feColorMatrix type="matrix" values="0 0 0 0 0 0 0 0 0 0 0 0 0 0 0 0 0 0 0.24 0" />
          <feBlend mode="normal" in2="BackgroundImageFix" result="effect1_dropShadow_217_156" />
          <feColorMatrix in="SourceAlpha" type="matrix" values="0 0 0 0 0 0 0 0 0 0 0 0 0 0 0 0 0 0 127 0"
            result="hardAlpha" />
          <feOffset dy="1.29524" />
          <feGaussianBlur stdDeviation="2.59048" />
          <feColorMatrix type="matrix" values="0 0 0 0 0 0 0 0 0 0 0 0 0 0 0 0 0 0 0.22 0" />
          <feBlend mode="normal" in2="effect1_dropShadow_217_156" result="effect2_dropShadow_217_156" />
          <feBlend mode="normal" in="SourceGraphic" in2="effect2_dropShadow_217_156" result="shape" />
        </filter>
        <filter id="filter1_dd_217_156" x="26.1529" y="53.2798" width="203.317" height="181.194"
          filterUnits="userSpaceOnUse" color-interpolation-filters="sRGB">
          <feFlood flood-opacity="0" result="BackgroundImageFix" />
          <feColorMatrix in="SourceAlpha" type="matrix" values="0 0 0 0 0 0 0 0 0 0 0 0 0 0 0 0 0 0 127 0"
            result="hardAlpha" />
          <feOffset dy="0.246095" />
          <feGaussianBlur stdDeviation="0.246095" />
          <feColorMatrix type="matrix" values="0 0 0 0 0 0 0 0 0 0 0 0 0 0 0 0 0 0 0.24 0" />
          <feBlend mode="normal" in2="BackgroundImageFix" result="effect1_dropShadow_217_156" />
          <feColorMatrix in="SourceAlpha" type="matrix" values="0 0 0 0 0 0 0 0 0 0 0 0 0 0 0 0 0 0 127 0"
            result="hardAlpha" />
          <feOffset dy="1.29524" />
          <feGaussianBlur stdDeviation="2.59048" />
          <feColorMatrix type="matrix" values="0 0 0 0 0 0 0 0 0 0 0 0 0 0 0 0 0 0 0.22 0" />
          <feBlend mode="normal" in2="effect1_dropShadow_217_156" result="effect2_dropShadow_217_156" />
          <feBlend mode="normal" in="SourceGraphic" in2="effect2_dropShadow_217_156" result="shape" />
        </filter>
        <filter id="filter2_dd_217_156" x="158.622" y="13.8319" width="84.9208" height="228.335"
          filterUnits="userSpaceOnUse" color-interpolation-filters="sRGB">
          <feFlood flood-opacity="0" result="BackgroundImageFix" />
          <feColorMatrix in="SourceAlpha" type="matrix" values="0 0 0 0 0 0 0 0 0 0 0 0 0 0 0 0 0 0 127 0"
            result="hardAlpha" />
          <feOffset />
          <feGaussianBlur stdDeviation="0.129524" />
          <feColorMatrix type="matrix" values="0 0 0 0 0 0 0 0 0 0 0 0 0 0 0 0 0 0 0.24 0" />
          <feBlend mode="normal" in2="BackgroundImageFix" result="effect1_dropShadow_217_156" />
          <feColorMatrix in="SourceAlpha" type="matrix" values="0 0 0 0 0 0 0 0 0 0 0 0 0 0 0 0 0 0 127 0"
            result="hardAlpha" />
          <feOffset />
          <feGaussianBlur stdDeviation="7.77143" />
          <feColorMatrix type="matrix" values="0 0 0 0 0 0 0 0 0 0 0 0 0 0 0 0 0 0 0.3 0" />
          <feBlend mode="normal" in2="effect1_dropShadow_217_156" result="effect2_dropShadow_217_156" />
          <feBlend mode="normal" in="SourceGraphic" in2="effect2_dropShadow_217_156" result="shape" />
        </filter>
        <linearGradient id="paint0_linear_217_156" x1="190.499" y1="28" x2="41.9893" y2="177.471"
          gradientUnits="userSpaceOnUse">
          <stop stop-color="#7252AA" />
          <stop offset="1" stop-color="#7252AA" />
        </linearGradient>
        <linearGradient id="paint1_linear_217_156" x1="46.7501" y1="64.4571" x2="186.332" y2="220.705"
          gradientUnits="userSpaceOnUse">
          <stop stop-color="#AE7FE2" />
          <stop offset="1" stop-color="#9A70D4" />
        </linearGradient>
        <linearGradient id="paint2_linear_217_156" x1="200.49" y1="25.3528" x2="200.49" y2="226.456"
          gradientUnits="userSpaceOnUse">
          <stop stop-color="#D59DFF" />
          <stop offset="1" stop-color="#C18EF1" />
        </linearGradient>
      </defs>
    </svg>

  </g>

  <g transform="translate(600, 0)">
    <svg width="256" height="256" viewBox="0 0 256 256" fill="none" xmlns="http://www.w3.org/2000/svg">
      <rect width="256" height="256" rx="60" fill="#242938" />
      <path
        d="M128.001 30C72.7791 30 28 74.7708 28 130.001C28 174.184 56.6533 211.668 96.3867 224.891C101.384 225.817 103.219 222.722 103.219 220.081C103.219 217.696 103.126 209.819 103.083 201.463C75.2631 207.512 69.3927 189.664 69.3927 189.664C64.8437 178.105 58.2894 175.032 58.2894 175.032C49.2163 168.825 58.9733 168.953 58.9733 168.953C69.0151 169.658 74.3026 179.258 74.3026 179.258C83.2217 194.546 97.6965 190.126 103.403 187.571C104.301 181.107 106.892 176.696 109.752 174.199C87.5405 171.67 64.1913 163.095 64.1913 124.778C64.1913 113.86 68.0977 104.939 74.4947 97.9362C73.4564 95.4175 70.0335 85.2465 75.4635 71.4722C75.4635 71.4722 83.8609 68.7845 102.971 81.7226C110.948 79.5069 119.502 78.3958 128.001 78.3577C136.499 78.3958 145.061 79.5069 153.052 81.7226C172.139 68.7845 180.525 71.4722 180.525 71.4722C185.968 85.2465 182.544 95.4175 181.505 97.9362C187.917 104.939 191.797 113.86 191.797 124.778C191.797 163.187 168.403 171.644 146.135 174.119C149.722 177.223 152.918 183.308 152.918 192.638C152.918 206.018 152.802 216.787 152.802 220.081C152.802 222.742 154.602 225.86 159.671 224.878C199.383 211.64 228 174.169 228 130.001C228 74.7708 183.227 30 128.001 30ZM65.4536 172.453C65.2333 172.95 64.4517 173.099 63.7396 172.758C63.0143 172.432 62.6069 171.754 62.8421 171.256C63.0574 170.744 63.8406 170.602 64.5643 170.945C65.2913 171.271 65.7053 171.955 65.4536 172.453ZM70.3725 176.842C69.8956 177.285 68.9633 177.079 68.3307 176.38C67.6766 175.683 67.554 174.751 68.0376 174.302C68.5294 173.86 69.4336 174.067 70.0893 174.764C70.7434 175.47 70.8709 176.395 70.3725 176.842ZM73.7471 182.458C73.1344 182.884 72.1325 182.485 71.5132 181.595C70.9004 180.706 70.9004 179.64 71.5264 179.212C72.1474 178.785 73.1344 179.169 73.762 180.052C74.373 180.956 74.373 182.023 73.7471 182.458ZM79.4542 188.962C78.9061 189.566 77.7386 189.404 76.8841 188.579C76.0098 187.773 75.7663 186.629 76.3161 186.024C76.8709 185.418 78.045 185.589 78.9061 186.407C79.7738 187.211 80.0387 188.364 79.4542 188.962ZM86.8301 191.157C86.5883 191.941 85.4639 192.297 84.3312 191.964C83.2002 191.621 82.46 190.704 82.6885 189.912C82.9237 189.124 84.053 188.753 85.194 189.109C86.3234 189.45 87.0652 190.361 86.8301 191.157ZM95.2242 192.089C95.2523 192.913 94.2919 193.597 93.1029 193.612C91.9073 193.639 90.9402 192.971 90.9269 192.16C90.9269 191.327 91.8659 190.65 93.0615 190.63C94.2505 190.607 95.2242 191.269 95.2242 192.089ZM103.47 191.773C103.613 192.577 102.787 193.404 101.606 193.624C100.445 193.836 99.3702 193.339 99.2229 192.541C99.0788 191.716 99.92 190.89 101.079 190.676C102.262 190.471 103.32 190.955 103.47 191.773Z"
        fill="white" />
    </svg>

  </g>

  <g transform="translate(900, 0)">
    <svg xmlns="http://www.w3.org/2000/svg" width="256" height="256" fill="none" viewBox="0 0 256 256">
      <rect width="256" height="256" fill="#F03C2E" rx="60" />
      <g clip-path="url(#clip0_7_283)">
        <path fill="#fff"
          d="M224.225 119.094L136.906 31.775C135.711 30.5787 134.291 29.6298 132.729 28.9824C131.166 28.3349 129.491 28.0017 127.8 28.0017C126.109 28.0017 124.434 28.3349 122.871 28.9824C121.309 29.6298 119.889 30.5787 118.694 31.775L100.569 49.9L123.569 72.9C128.919 71.025 135.044 72.3062 139.306 76.5687C141.335 78.6014 142.752 81.1638 143.394 83.9632C144.036 86.7626 143.878 89.6862 142.937 92.4L165.106 114.569C170.469 112.719 176.656 113.912 180.937 118.206C182.361 119.63 183.49 121.32 184.26 123.18C185.03 125.04 185.426 127.033 185.426 129.046C185.425 131.059 185.029 133.052 184.258 134.912C183.487 136.771 182.358 138.461 180.934 139.884C179.511 141.308 177.821 142.436 175.961 143.206C174.101 143.977 172.108 144.373 170.095 144.372C168.082 144.372 166.088 143.975 164.229 143.205C162.369 142.434 160.679 141.305 159.256 139.881C154.756 135.381 153.644 128.756 155.919 123.212L135.244 102.537V156.944C136.745 157.686 138.116 158.666 139.306 159.844C140.729 161.267 141.858 162.956 142.629 164.816C143.399 166.675 143.795 168.668 143.795 170.681C143.795 172.694 143.399 174.687 142.629 176.546C141.858 178.406 140.729 180.096 139.306 181.519C137.883 182.942 136.193 184.071 134.334 184.841C132.474 185.611 130.481 186.008 128.469 186.008C126.456 186.008 124.463 185.611 122.604 184.841C120.744 184.071 119.054 182.942 117.631 181.519C116.206 180.096 115.076 178.407 114.305 176.548C113.533 174.688 113.136 172.694 113.136 170.681C113.136 168.668 113.533 166.675 114.305 164.815C115.076 162.955 116.206 161.266 117.631 159.844C119.112 158.369 120.756 157.25 122.65 156.5V101.587C120.825 100.837 119.112 99.7312 117.631 98.2437C115.479 96.0943 114.016 93.3526 113.428 90.3684C112.841 87.3841 113.155 84.2924 114.331 81.4875L91.6437 58.8125L31.7687 118.625C30.5716 119.821 29.6219 121.241 28.9739 122.804C28.3259 124.367 27.9924 126.042 27.9924 127.734C27.9924 129.426 28.3259 131.102 28.9739 132.665C29.6219 134.228 30.5716 135.648 31.7687 136.844L119.094 224.156C120.289 225.352 121.709 226.301 123.271 226.949C124.834 227.596 126.509 227.929 128.2 227.929C129.891 227.929 131.566 227.596 133.129 226.949C134.691 226.301 136.111 225.352 137.306 224.156L224.225 137.375C225.422 136.179 226.372 134.759 227.02 133.196C227.668 131.633 228.001 129.958 228.001 128.266C228.001 126.574 227.668 124.898 227.02 123.335C226.372 121.772 225.422 120.352 224.225 119.156" />
      </g>
      <defs>
        <clipPath id="clip0_7_283">
          <rect width="200" height="200" fill="#fff" transform="translate(28 28)" />
        </clipPath>
      </defs>
    </svg>
  </g>

  <g transform="translate(1200, 0)">
    <svg width="256" height="256" viewBox="0 0 256 256" fill="none" xmlns="http://www.w3.org/2000/svg">
      <rect width="256" height="256" rx="60" fill="#242938" />
      <path
        d="M107.028 48.8181H60.7888C51.5798 48.8181 44.0108 56.6801 44.0108 66.4151C43.6818 75.8111 50.9178 83.6701 59.9698 84.0111H107.522L107.028 48.8181Z"
        fill="#073042" />
      <path
        d="M211.835 205.303H60.7887C51.4147 205.303 44.0107 197.445 44.0107 187.707V66.2461C44.0107 75.9821 51.5797 83.8411 60.7887 84.0111H187.321C187.321 84.0111 212 81.7931 212 101.097V205.303H211.835Z"
        fill="#4285F4" />
      <path
        d="M141.413 143.12C148.159 137.825 149.475 127.917 144.379 121.082C141.579 117.324 137.301 114.933 132.692 114.761H133.186C134.011 114.591 134.997 114.591 135.823 114.761V105.024C135.823 103.828 135.327 102.803 134.34 102.292C132.858 101.437 131.049 101.95 130.227 103.487C129.897 104 129.733 104.512 129.897 105.195V115.102C121.671 116.469 115.912 124.499 117.225 133.213V133.383C117.886 137.483 120.027 141.242 123.316 143.633L95.5088 205.474H113.609L126.441 177.116C127.925 173.698 131.872 172.162 135.327 173.87C136.646 174.554 137.795 175.749 138.453 177.116L151.783 205.474H170.209L141.413 143.12ZM132.036 140.387C126.77 140.387 122.657 135.945 122.657 130.48C122.657 125.011 126.935 120.741 132.199 120.911C134.667 120.911 136.81 121.937 138.617 123.647C142.401 127.403 142.401 133.554 138.781 137.483C137.137 139.192 134.667 140.387 132.036 140.387Z"
        fill="#3870B2" />
      <path d="M96.9917 57.363H161.818V69.662H96.9917V57.363Z" fill="white" />
      <path
        d="M127.1 120.741C132.199 120.741 136.48 125.183 136.316 130.649C136.316 135.945 132.036 140.387 126.77 140.216C121.671 140.216 117.556 135.775 117.556 130.48C117.556 127.917 118.542 125.524 120.357 123.647C122.164 121.766 124.63 120.741 127.1 120.741ZM130.72 115.102V104.853C130.72 103.657 130.227 102.633 129.24 102.119C127.76 101.265 125.949 101.778 125.123 103.316C124.793 103.828 124.63 104.341 124.793 105.024V114.933C116.567 116.298 110.808 124.33 112.129 133.042V133.213C112.788 137.31 114.924 141.07 118.215 143.46L83.1688 221.532C81.8538 224.268 82.0178 227.682 83.8278 230.245C86.4568 234.173 91.5618 235.198 95.3418 232.466C96.6628 231.611 97.6488 230.245 98.3058 228.878L121.671 176.944C123.151 173.528 127.1 171.99 130.556 173.698C131.872 174.382 133.022 175.579 133.681 176.944L157.539 228.366C159.516 232.636 164.449 234.344 168.566 232.293C172.676 230.245 174.323 225.119 172.347 220.848L136.316 143.12C142.896 137.652 144.049 127.575 138.781 120.741C136.81 118.007 134.011 116.128 130.72 115.102Z"
        fill="#073042" />
      <path
        d="M152.276 68.296C149.805 68.296 147.831 66.415 147.831 63.854C147.831 62.658 148.323 61.292 149.146 60.437C150.957 58.73 153.591 58.73 155.401 60.437C156.222 61.292 156.716 62.487 156.716 63.683C156.552 66.246 154.742 68.125 152.276 68.296ZM103.572 68.125C101.1 68.125 99.1288 66.075 99.1288 63.683C99.1288 62.487 99.6238 61.292 100.443 60.437C101.925 58.559 104.726 58.216 106.533 59.756H106.698C108.506 61.463 108.67 64.366 107.028 66.246L106.533 66.927C105.712 67.782 104.562 68.296 103.406 68.296L103.572 68.125ZM153.591 40.62L162.311 24.904C162.804 24.05 162.475 23.025 161.818 22.342C160.995 22 160.174 22.171 159.681 22.855L150.629 39.083C136.151 32.421 119.698 32.421 105.383 39.083L96.4978 23.025C96.1688 22.513 95.5088 22 94.8488 22C94.1918 22 93.5328 22.342 93.2018 23.025C92.8738 23.538 92.8738 24.391 93.2018 24.904L102.09 40.62C86.6208 49.33 76.5848 65.734 75.1078 83.841H180.737C179.424 65.564 169.221 49.33 153.755 40.62"
        fill="#3DDC84" />
      <path
        d="M197.37 117.839H190.459C190.128 118.007 189.8 118.349 189.8 118.861V232.466C189.8 232.977 190.128 233.319 190.625 233.319H197.863C206.254 233.319 213 226.143 213 217.603V101.95C213 110.662 206.254 117.667 197.863 117.667H197.37V117.839Z"
        fill="#073042" />
    </svg>

  </g>

  <g transform="translate(1500, 0)">
    <svg xmlns="http://www.w3.org/2000/svg" width="256" height="256" fill="none" viewBox="0 0 256 256">
      <rect width="256" height="256" fill="#242938" rx="60" />
      <path fill="#2489CA"
        d="M33.7158 100.208C33.7158 100.208 28.9814 96.795 34.6627 92.2381L47.8994 80.402C47.8994 80.402 51.6869 76.4172 55.6915 79.8891L177.84 172.368V216.714C177.84 216.714 177.781 223.678 168.844 222.908L33.7158 100.208Z" />
      <path fill="#1070B3"
        d="M65.1997 128.792L33.7157 157.415C33.7157 157.415 30.4805 159.822 33.7157 164.123L48.3333 177.418C48.3333 177.418 51.8052 181.147 56.9341 176.905L90.3119 151.596L65.1997 128.792Z" />
      <path fill="#0877B9"
        d="M120.474 129.029L178.215 84.9391L177.84 40.83C177.84 40.83 175.374 31.2033 167.148 36.2139L90.312 106.145L120.474 129.029Z" />
      <path fill="#3C99D4"
        d="M168.844 222.968C172.198 226.4 176.262 225.276 176.262 225.276L221.259 203.103C227.019 199.177 226.21 194.305 226.21 194.305V61.8982C226.21 56.0788 220.252 54.0667 220.252 54.0667L181.253 35.267C172.731 30 167.148 36.2139 167.148 36.2139C167.148 36.2139 174.328 31.0455 177.84 40.83V215.905C177.84 217.109 177.583 218.292 177.071 219.358C176.045 221.429 173.816 223.362 168.47 222.553L168.844 222.968Z" />
    </svg>
  </g>

  <g transform="translate(1800, 0)">
    <svg xmlns="http://www.w3.org/2000/svg" width="256" height="256" fill="none" viewBox="0 0 256 256">
      <rect width="256" height="256" fill="#242938" rx="60" />
      <path fill="#ECEFF1"
        d="M85.9493 199.926L110.48 213.546H147.576L182.278 187.491L197.834 146.632L161.935 103.405L151.764 79.1268L102.104 80.9032L102.702 94.5228L93.1291 112.287L78.1713 141.303L75.1797 165.581L85.9493 199.926Z" />
      <path fill="#263238"
        d="M187.064 114.656C177.491 101.036 169.713 92.7463 165.525 75.5738C161.337 58.4013 166.722 63.1386 163.132 48.3347C161.337 40.6367 158.345 35.3073 155.354 31.1622C151.764 27.0171 147.576 24.6485 145.182 24.0563C139.798 21.0956 127.233 16.3583 111.677 24.6485C95.5223 32.9387 97.3172 50.7033 100.309 86.8248C100.309 89.1934 99.7105 92.1542 98.5139 94.5228C96.1206 99.8522 91.9324 104.589 88.3425 108.735C84.1543 114.656 79.9661 120.578 76.9746 127.091C69.7948 140.711 63.2134 157.883 65.0083 164.397C67.9999 163.805 105.694 220.652 105.694 221.836C108.087 221.244 118.258 221.244 127.233 221.244C139.798 220.652 146.977 220.06 157.149 222.428C157.149 220.652 156.55 218.875 156.55 217.099C156.55 213.546 157.149 210.585 157.747 206.44C158.345 203.479 158.944 200.519 159.542 196.966C153.559 202.295 142.789 208.217 132.618 209.993C123.643 211.769 108.685 208.809 101.505 199.926C102.104 199.926 103.3 199.926 103.899 199.334C105.694 198.742 107.489 198.15 108.087 196.966C109.882 194.005 108.685 191.044 107.489 189.268C106.292 187.491 97.3173 180.977 93.1291 177.425C88.9409 173.872 86.5476 172.095 84.1544 169.727C84.1544 169.727 80.5645 166.174 79.3678 164.989C78.1712 163.805 77.5729 162.621 76.9746 162.028C75.778 159.068 75.1796 155.515 75.778 150.778C76.3763 144.264 78.7695 138.934 81.7611 133.013C82.9577 130.644 85.9493 125.907 85.9493 125.907C85.9493 125.907 75.778 150.778 81.1628 158.476C81.1628 158.476 81.7611 150.778 84.1544 143.08C85.9493 137.75 88.9409 130.052 92.5307 125.907C96.1206 121.762 105.095 106.366 105.694 96.8914C105.694 92.7463 106.292 88.6012 106.292 85.6405C103.899 83.2718 145.781 77.3503 148.174 83.864C148.772 86.2326 157.149 107.55 161.935 118.801C164.328 124.131 167.32 128.868 169.115 134.789C170.91 141.303 172.106 150.185 172.106 159.068C172.106 160.844 172.106 163.805 171.508 166.766C172.705 166.766 196.039 141.895 168.517 121.17C168.517 121.17 185.269 128.868 185.868 144.264C186.466 156.699 181.081 166.766 179.885 168.542C180.483 168.542 192.449 173.872 193.047 173.872C195.441 173.872 200.227 172.095 200.227 172.095C200.826 170.319 202.62 165.581 202.62 163.805C206.809 150.185 196.637 128.276 187.064 114.656V114.656Z" />
      <path fill="#ECEFF1"
        d="M111.078 75.5738C115.374 75.5738 118.856 70.2714 118.856 63.7307C118.856 57.1899 115.374 51.8876 111.078 51.8876C106.783 51.8876 103.3 57.1899 103.3 63.7307C103.3 70.2714 106.783 75.5738 111.078 75.5738Z" />
      <path fill="#ECEFF1"
        d="M138.002 76.7581C143.62 76.7581 148.174 70.6604 148.174 63.1386C148.174 55.6167 143.62 49.519 138.002 49.519C132.385 49.519 127.831 55.6167 127.831 63.1386C127.831 70.6604 132.385 76.7581 138.002 76.7581Z" />
      <path fill="#212121"
        d="M115.424 64.5411C114.927 60.6476 112.663 57.7241 110.368 58.0111C108.074 58.2982 106.616 61.6872 107.114 65.5807C107.611 69.4741 109.874 72.3977 112.169 72.1106C114.464 71.8235 115.921 68.4345 115.424 64.5411Z" />
      <path fill="#212121"
        d="M137.404 73.2052C140.709 73.2052 143.387 69.7587 143.387 65.5072C143.387 61.2557 140.709 57.8091 137.404 57.8091C134.1 57.8091 131.421 61.2557 131.421 65.5072C131.421 69.7587 134.1 73.2052 137.404 73.2052Z" />
      <path fill="#FFC107"
        d="M216.98 195.781C214.587 194.597 210.398 192.82 206.808 187.491C205.014 184.53 205.612 176.24 202.62 172.687C200.825 170.319 198.432 171.503 197.834 171.503C192.449 172.687 179.884 180.977 171.508 171.503C170.311 170.319 168.516 168.542 165.525 168.542C162.533 168.542 161.337 169.726 160.14 172.095C158.943 174.464 158.943 176.24 158.943 182.162C158.943 186.899 158.943 192.228 158.345 196.373C157.148 206.44 155.354 212.362 155.354 218.283C155.354 224.797 157.148 228.942 159.542 230.718C161.337 232.495 164.328 233.679 170.91 233.679C177.491 233.679 181.679 231.311 185.868 227.165C188.859 224.205 191.252 223.02 199.629 217.099C206.21 212.954 216.382 207.624 218.176 205.848C219.373 204.664 221.168 204.071 221.168 200.518C221.168 197.558 218.775 196.373 216.98 195.781V195.781Z" />
      <path fill="#FFC107"
        d="M96.7189 197.558C90.7357 188.083 90.1374 186.307 85.9492 180.385C82.3593 174.464 74.5813 163.213 69.7948 163.213C66.2049 163.213 64.4099 164.989 62.0167 167.358C59.6234 169.726 57.2302 175.056 53.042 178.017C49.4521 180.977 39.2808 180.385 36.8875 183.938C34.4942 187.491 39.2808 192.821 39.2808 201.703C39.2808 205.256 36.2892 207.624 35.6909 209.993C35.0926 212.954 34.4942 214.73 35.6909 217.099C38.0841 220.652 41.0757 221.836 61.4184 225.981C72.188 228.35 82.3593 234.271 88.9408 234.864C95.5222 235.456 106.89 234.864 106.89 218.875C107.489 209.401 102.104 207.032 96.7189 197.558Z" />
      <path fill="#FFC107"
        d="M108.087 90.3777C104.497 88.0091 101.505 85.6404 101.505 82.0875C101.505 78.5346 103.899 77.3503 107.489 74.3895C108.087 73.7973 114.668 67.8758 121.25 67.8758C127.831 67.8758 135.609 72.0209 138.601 73.2052C143.986 74.3895 149.37 75.5738 148.772 79.7189C148.174 85.6404 147.576 86.8248 141.592 89.7855C137.404 90.9698 129.626 97.4835 124.241 97.4835C121.848 97.4835 118.258 97.4835 115.865 96.8914C114.07 96.2992 111.078 93.3385 108.087 90.3777V90.3777Z" />
      <path fill="#634703"
        d="M106.89 85.6405C108.087 86.8248 109.882 88.0091 111.677 88.6012C112.873 89.1934 114.668 89.7856 114.668 89.7856C117.062 89.7856 118.857 89.7856 120.053 89.7856C123.045 89.7856 127.233 88.6013 131.421 86.2326C135.609 84.4562 136.208 83.2718 139.199 82.0875C142.191 80.3111 145.182 78.5346 143.986 77.9425C142.789 77.3503 141.592 77.9425 137.404 80.3111C133.814 82.6797 130.823 83.864 127.233 85.6405C125.438 86.2326 123.045 87.4169 121.25 87.4169C119.455 87.4169 117.66 87.4169 115.865 87.4169C114.07 87.4169 112.873 86.8248 111.078 86.2326C109.882 85.6405 109.283 85.0483 108.685 85.0483C107.489 84.4562 105.095 82.0875 103.899 81.4954C103.899 81.4954 102.702 81.4954 103.3 82.0875C105.095 83.864 105.694 84.4562 106.89 85.6405Z" />
      <path fill="#634703"
        d="M124.84 72.613C125.438 73.7973 126.635 73.7973 127.233 74.3895C127.831 74.9816 128.429 74.9816 128.429 74.9816C129.028 74.3895 128.429 73.2052 127.831 73.2052C127.831 72.0209 124.84 72.0209 124.84 72.613V72.613Z" />
      <path fill="#634703"
        d="M115.267 73.7973C115.267 74.3895 116.463 74.9816 116.463 74.3895C117.062 73.7973 117.66 73.2052 118.258 73.2052C119.455 72.613 118.856 72.0209 117.062 72.0209C115.865 72.613 115.865 73.2052 115.267 73.7973V73.7973Z" />
      <path fill="#455A64"
        d="M173.303 178.609C173.303 179.201 173.303 179.793 173.303 180.385C174.5 182.754 177.491 183.346 179.884 183.346C183.474 183.346 187.064 180.977 188.859 178.609C188.859 178.017 189.457 177.424 190.056 176.832C191.252 175.056 191.851 173.872 192.449 173.279C192.449 173.279 191.851 172.687 191.851 172.095C191.252 170.911 189.457 169.726 187.064 169.134C185.269 168.542 182.278 167.95 181.081 167.95C175.696 167.358 172.705 169.134 170.91 170.911C170.91 170.911 171.508 170.911 171.508 171.503C172.705 172.687 173.303 173.872 173.303 175.648C173.901 176.832 173.303 177.424 173.303 178.609V178.609Z" />
    </svg>
  </g>

  <g transform="translate(2100, 0)">
    <svg width="256" height="256" viewBox="0 0 256 256" fill="none" xmlns="http://www.w3.org/2000/svg">
      <rect width="256" height="256" rx="60" fill="#242938" />
      <path fill-rule="evenodd" clip-rule="evenodd"
        d="M36.4065 203.248C35.1443 203.286 33.8902 203.033 32.7411 202.51C31.5921 201.986 30.5788 201.205 29.7794 200.227C28.9801 199.169 28.4302 197.943 28.1705 196.643C27.9108 195.342 27.9482 193.999 28.2797 192.715L58.2516 61.7869C58.9172 59.073 60.4491 56.6499 62.6152 54.8845C64.7813 53.1191 67.4636 52.1077 70.2561 52.0034H219.594C220.856 51.9671 222.11 52.2206 223.258 52.7442C224.407 53.2679 225.421 54.0478 226.221 55.0242C227.02 56.083 227.57 57.3084 227.829 58.6091C228.089 59.9098 228.052 61.2524 227.721 62.5368L197.728 193.472C197.062 196.186 195.53 198.609 193.364 200.374C191.198 202.14 188.516 203.151 185.723 203.255H36.4065V203.248Z"
        fill="url(#paint0_linear_258_44)" />
      <path fill-rule="evenodd" clip-rule="evenodd"
        d="M70.2557 53.6861H219.594C220.64 53.6433 221.681 53.853 222.628 54.2974C223.576 54.7418 224.403 55.4078 225.039 56.2393C225.675 57.0707 226.101 58.043 226.282 59.0741C226.463 60.1051 226.393 61.1645 226.078 62.1628L196.085 193.091C195.494 195.427 194.168 197.512 192.302 199.039C190.437 200.565 188.13 201.451 185.723 201.567H36.4062C35.3602 201.61 34.3194 201.401 33.3716 200.956C32.4239 200.512 31.597 199.846 30.961 199.014C30.325 198.183 29.8986 197.21 29.7177 196.179C29.5368 195.148 29.6069 194.089 29.9219 193.091L59.9152 62.1628C60.504 59.8289 61.8265 57.7457 63.688 56.2197C65.5495 54.6938 67.8517 53.8057 70.2557 53.6861V53.6861Z"
        fill="url(#paint1_linear_258_44)" />
      <path fill-rule="evenodd" clip-rule="evenodd"
        d="M128.286 167.219H164.606C166.663 167.306 168.607 168.185 170.032 169.671C171.457 171.158 172.253 173.137 172.253 175.196C172.253 177.255 171.457 179.234 170.032 180.721C168.607 182.207 166.663 183.086 164.606 183.173H128.286C126.229 183.086 124.285 182.207 122.86 180.721C121.435 179.234 120.639 177.255 120.639 175.196C120.639 173.137 121.435 171.158 122.86 169.671C124.285 168.185 126.229 167.306 128.286 167.219V167.219Z"
        fill="#2C5591" />
      <path fill-rule="evenodd" clip-rule="evenodd"
        d="M151.846 131.756C150.806 133.505 149.358 134.975 147.625 136.041L80.2186 184.423C78.3415 185.644 76.0674 186.098 73.8654 185.691C71.6634 185.284 69.7015 184.048 68.3843 182.237C67.0671 180.426 66.4952 178.179 66.7864 175.959C67.0777 173.739 68.2099 171.715 69.9495 170.305L130.736 126.286V125.386L92.5445 84.7812C91.1206 83.0683 90.4045 80.8765 90.5422 78.6533C90.6799 76.4302 91.6611 74.3435 93.2855 72.8194C94.9098 71.2953 97.0547 70.4489 99.2821 70.4529C101.51 70.4569 103.651 71.3111 105.27 72.841L151.103 121.594C152.334 122.967 153.076 124.709 153.21 126.549C153.344 128.388 152.864 130.219 151.846 131.756Z"
        fill="#2C5591" />
      <path fill-rule="evenodd" clip-rule="evenodd"
        d="M150.138 130.071C149.103 131.821 147.657 133.291 145.925 134.356L78.54 182.745C76.6623 183.94 74.3996 184.375 72.2127 183.96C70.0258 183.546 68.0791 182.313 66.7692 180.513C65.4593 178.714 64.8847 176.482 65.1624 174.274C65.44 172.065 66.5491 170.046 68.2637 168.626L129.057 124.608V123.701L90.8658 83.0741C89.4286 81.3622 88.7018 79.1648 88.8348 76.9335C88.9679 74.7023 89.9507 72.6067 91.5811 71.0778C93.2116 69.5488 95.3659 68.7025 97.6011 68.713C99.8363 68.7234 101.983 69.5898 103.599 71.134L149.424 119.887C150.661 121.262 151.403 123.011 151.532 124.856C151.662 126.701 151.171 128.537 150.138 130.071V130.071Z"
        fill="white" />
      <path fill-rule="evenodd" clip-rule="evenodd"
        d="M127.287 166.278H163.607C165.613 166.278 167.536 167.075 168.955 168.493C170.373 169.911 171.17 171.835 171.17 173.84C171.17 175.846 170.373 177.77 168.955 179.188C167.536 180.606 165.613 181.403 163.607 181.403H127.287C125.281 181.403 123.357 180.606 121.939 179.188C120.521 177.77 119.724 175.846 119.724 173.84C119.724 171.835 120.521 169.911 121.939 168.493C123.357 167.075 125.281 166.278 127.287 166.278V166.278Z"
        fill="white" />
      <defs>
        <linearGradient id="paint0_linear_258_44" x1="180.31" y1="174.355" x2="65.5857" y2="71.8775"
          gradientUnits="userSpaceOnUse">
          <stop stop-color="#5391FE" />
          <stop offset="1" stop-color="#3E6DBF" />
        </linearGradient>
        <linearGradient id="paint1_linear_258_44" x1="64.4427" y1="70.5109" x2="177.996" y2="172.56"
          gradientUnits="userSpaceOnUse">
          <stop stop-color="#5391FE" />
          <stop offset="1" stop-color="#3E6DBF" />
        </linearGradient>
      </defs>
    </svg>

  </g>

  <g transform="translate(0, 300)">
    <svg xmlns="http://www.w3.org/2000/svg" width="256" height="256" fill="none" viewBox="0 0 256 256">
      <rect width="256" height="256" fill="#242938" rx="60" />
      <g clip-path="url(#clip0_137_129)">
        <path fill="#D33833" fill-rule="evenodd"
          d="M198.402 124.423C198.402 164.029 167.012 196.137 128.29 196.137C89.5687 196.137 58.1785 164.029 58.1785 124.423C58.1785 84.8157 89.5687 52.7075 128.29 52.7075C167.012 52.7075 198.402 84.8157 198.402 124.423Z"
          clip-rule="evenodd" />
        <path fill="#EF3D3A"
          d="M61.0356 142.184C61.0356 142.184 55.96 67.3982 124.871 65.2612L120.063 57.2484L82.6703 69.8021L71.9863 82.0881L62.6382 99.9839L57.2959 120.817L58.8985 134.706" />
        <path fill="#231F20"
          d="M80.2695 75.5008C67.9682 88.0873 60.356 105.466 60.356 124.691C60.356 143.912 67.9682 161.292 80.2695 173.877C92.5767 186.461 109.538 194.226 128.289 194.226C147.041 194.226 164.003 186.461 176.309 173.877C188.61 161.292 196.224 143.912 196.224 124.691C196.224 105.466 188.61 88.0873 176.309 75.5008C164.003 62.9191 147.041 55.1538 128.289 55.1522C109.538 55.1538 92.5767 62.9191 80.2695 75.5008ZM77.1557 176.921C64.0823 163.551 56 145.073 56 124.691C56 104.305 64.0823 85.8293 77.1557 72.4583C90.226 59.0849 108.319 50.7957 128.289 50.7981C148.26 50.7957 166.354 59.0849 179.422 72.4583C192.497 85.8293 200.58 104.307 200.579 124.691C200.58 145.073 192.497 163.551 179.422 176.921C166.354 190.293 148.26 198.582 128.289 198.582C108.319 198.582 90.226 190.293 77.1557 176.921" />
        <path fill="#F0D6B7" fill-rule="evenodd"
          d="M157.804 124.821L147.119 126.423L132.696 128.026L123.347 128.292L114.267 128.026L107.322 125.889L101.178 119.212L96.3707 105.59L95.3024 102.651L88.8922 100.515L85.1528 94.3718L82.4819 85.5577L85.4204 77.8117L92.3643 75.4079L97.9733 78.0793L100.645 83.9551L103.85 83.4207L104.918 82.0858L103.85 75.9423L103.582 68.1963L105.185 57.5128L105.122 51.4103L109.993 43.6242L118.54 37.4808L133.497 31.0705L150.057 33.4744L164.48 43.891L171.158 54.5745L175.431 62.3205L176.499 81.5513L173.294 98.1114L167.418 112.801L161.809 120.547"
          clip-rule="evenodd" />
        <path fill="#335061" fill-rule="evenodd"
          d="M148.722 171.027L110.527 172.63V179.04L113.732 201.476L112.13 203.346L85.4206 194.264L83.5504 191.059L80.8796 160.878L74.7373 142.716L73.4014 138.442L94.7684 123.752L101.446 121.081L107.322 128.292L112.397 132.833L118.273 134.703L120.944 135.504L124.149 149.393L126.553 152.331L132.696 150.194L128.422 158.474L151.66 169.425L148.722 171.027"
          clip-rule="evenodd" />
        <path fill="#6D6B6D" fill-rule="evenodd"
          d="M85.4205 77.8117L92.3644 75.4078L97.9734 78.0793L100.645 83.9551L103.85 83.4206L104.651 80.2155L103.049 74.0729L104.651 59.3822L103.315 51.3693L108.123 45.7604L118.54 37.4807L115.602 33.4743L100.911 40.6858L94.7682 45.4935L91.2961 52.9719L85.9541 60.1834L84.3516 68.7307L85.4205 77.8117Z"
          clip-rule="evenodd" />
        <path fill="#DCD9D8" fill-rule="evenodd"
          d="M96.3709 52.7051C96.3709 52.7051 100.377 42.8229 116.403 38.0152C132.429 33.2075 117.204 34.5424 117.204 34.5424L99.8437 41.2203L93.1658 47.8974L90.2283 53.2396L96.3709 52.7051Z"
          clip-rule="evenodd" />
        <path fill="#DCD9D8" fill-rule="evenodd"
          d="M88.358 75.9422C88.358 75.9422 82.749 57.2451 104.117 54.5745L103.315 51.3693L88.6256 54.8421L84.3516 68.7307L85.4205 77.8116L88.358 75.9422Z"
          clip-rule="evenodd" />
        <path fill="#F7E4CD" fill-rule="evenodd"
          d="M96.905 100.782L100.402 97.3934C100.402 97.3934 101.981 97.5769 102.247 99.4463C102.514 101.317 103.315 118.143 114.8 127.225C115.848 128.054 106.254 125.889 106.254 125.889L97.7063 112.534"
          clip-rule="evenodd" />
        <path fill="#F7E4CD" fill-rule="evenodd"
          d="M146.052 95.7075C146.052 95.7075 146.675 87.6114 148.855 88.234C151.035 88.8566 151.035 91.0368 151.035 91.0368C151.035 91.0368 145.74 94.4623 146.052 95.7075"
          clip-rule="evenodd" />
        <path fill="#F7E4CD"
          d="M168.22 66.0601C168.22 66.0601 163.817 66.9895 163.412 70.8678C163.006 74.7468 168.22 71.669 169.021 71.4022" />
        <path fill="#F7E4CD"
          d="M135.901 66.3277C135.901 66.3277 130.025 67.129 130.025 70.8678C130.025 74.6073 136.703 74.3405 138.572 72.738" />
        <path fill="#F7E4CD" fill-rule="evenodd"
          d="M99.5759 83.6883C99.5759 83.6883 89.4259 77.5448 88.358 83.4215C87.2897 89.2973 84.8852 93.5713 89.9605 99.7139L86.4884 98.6458L83.2833 90.3662L82.2153 82.3533L88.358 75.9423L95.3025 76.4767L99.3089 79.6819L99.5759 83.6883Z"
          clip-rule="evenodd" />
        <path fill="#F7E4CD" fill-rule="evenodd"
          d="M104.384 66.8614C104.384 66.8614 108.924 43.3574 131.895 38.8165C150.806 35.0785 160.74 39.6178 164.48 43.891C164.48 43.891 147.653 23.8598 131.627 30.0024C115.602 36.1458 103.85 47.3638 104.117 54.5745C104.572 66.8566 104.384 66.8614 104.384 66.8614Z"
          clip-rule="evenodd" />
        <path fill="#F7E4CD" fill-rule="evenodd"
          d="M166.35 46.5617C166.35 46.5617 158.605 46.2949 158.337 53.2396C158.337 53.2396 158.337 54.3077 158.871 55.3758C158.871 55.3758 165.015 48.4311 168.754 52.1707"
          clip-rule="evenodd" />
        <path fill="#F7E4CD" fill-rule="evenodd"
          d="M132.433 56.0994C132.433 56.0994 131.1 45.4399 122.012 51.637C116.136 55.6434 116.671 61.2524 117.738 62.3205C118.807 63.3894 118.516 65.5409 119.33 64.0641C120.142 62.5873 119.875 57.7796 122.813 56.4447C125.751 55.109 130.568 53.617 132.433 56.0994Z"
          clip-rule="evenodd" />
        <path fill="#49728B" fill-rule="evenodd"
          d="M107.322 128.292L82.2155 139.51C82.2155 139.51 92.6321 180.91 87.2898 193.731L83.5504 192.396L83.2834 176.637L76.3398 146.723L73.4014 138.442L99.576 120.815L107.322 128.292Z"
          clip-rule="evenodd" />
        <path fill="#49728B" fill-rule="evenodd"
          d="M109.903 151.191L113.465 155.537V171.562H109.191C109.191 171.562 108.658 160.345 108.658 159.009C108.658 157.673 109.191 152.865 109.191 152.865"
          clip-rule="evenodd" />
        <path fill="#49728B" fill-rule="evenodd" d="M109.993 173.966L97.9734 174.5L101.446 176.904L109.993 178.239"
          clip-rule="evenodd" />
        <path fill="#335061" fill-rule="evenodd"
          d="M151.126 171.295L161.008 171.028L163.412 195.601L153.262 196.936L151.126 171.295" clip-rule="evenodd" />
        <path fill="#335061" fill-rule="evenodd"
          d="M153.796 171.295L168.754 170.494C168.754 170.494 174.897 155.002 174.897 154.201C174.897 153.4 180.239 131.765 180.239 131.765L168.219 119.212L165.816 117.075L159.405 123.486V148.325L153.796 171.295"
          clip-rule="evenodd" />
        <path fill="#49728B" fill-rule="evenodd"
          d="M160.473 169.425L151.126 171.295L152.461 178.774C155.933 180.377 161.809 176.103 161.809 176.103"
          clip-rule="evenodd" />
        <path fill="#49728B" fill-rule="evenodd"
          d="M160.741 122.684L179.438 136.573L179.972 130.163L165.816 117.075L160.741 122.684Z" clip-rule="evenodd" />
        <path fill="#fff" fill-rule="evenodd"
          d="M119.262 223.915L113.732 201.476L110.982 184.919L110.527 172.63L135.555 171.297L151.126 171.295L149.71 199.342L152.114 220.977L151.847 224.983L131.548 226.586L119.262 223.915"
          clip-rule="evenodd" />
        <path fill="#DCD9D8" fill-rule="evenodd"
          d="M147.653 171.028C147.653 171.028 146.318 198.806 150.325 218.57C150.325 218.57 142.312 223.646 130.559 224.981L152.995 224.179L155.666 222.577L152.461 178.774L151.66 169.425"
          clip-rule="evenodd" />
        <path fill="#fff" fill-rule="evenodd"
          d="M163.867 193.466L174.284 190.528L194.048 189.46L196.986 180.379L191.644 164.62L185.502 163.819L176.954 166.49L168.754 170.494L164.401 169.695L161.008 171.028"
          clip-rule="evenodd" />
        <path fill="#DCD9D8" fill-rule="evenodd"
          d="M163.679 188.122C163.679 188.122 170.623 184.917 171.692 185.184L168.754 170.494L172.226 169.159C172.226 169.159 174.63 183.047 174.63 184.65C174.63 184.65 189.587 185.451 190.922 185.451C190.922 185.451 194.127 179.308 193.326 172.897L196.264 181.445L196.531 186.252L192.258 192.663L187.45 193.731L179.438 193.464L176.767 189.992L167.418 191.327L164.48 192.396"
          clip-rule="evenodd" />
        <path fill="#fff"
          d="M153.183 169.161L147.307 154.204L141.164 145.389C141.164 145.389 142.499 141.65 144.369 141.65C146.239 141.65 150.512 141.65 150.512 141.65L156.388 143.787L155.854 153.669L153.183 169.161Z" />
        <path fill="#DCD9D8" fill-rule="evenodd"
          d="M154.331 164.083C154.331 164.083 146.852 149.661 146.852 147.524C146.852 147.524 148.187 144.319 150.057 145.12C151.927 145.921 155.934 148.058 155.934 148.058V142.983L146.852 141.113L140.709 141.914L151.126 166.487L153.262 166.755"
          clip-rule="evenodd" />
        <path fill="#fff" d="M121.666 128.83L114.267 128.026L107.322 125.889V128.292L110.715 132.034L121.399 136.842" />
        <path fill="#DCD9D8" fill-rule="evenodd"
          d="M109.727 129.631C109.727 129.631 118.007 133.103 120.678 132.302L120.944 135.504L113.466 133.905L108.925 130.7L109.727 129.631Z"
          clip-rule="evenodd" />
        <path fill="#D33833" fill-rule="evenodd"
          d="M163.838 142.559C159.306 142.426 155.211 141.888 151.627 140.877C151.87 139.407 151.414 137.965 151.78 136.906C152.78 136.187 154.454 136.198 155.965 136.029C154.659 135.387 152.824 135.133 151.316 135.504C151.281 134.484 150.824 133.852 150.546 133.054C153.094 132.144 159.11 126.182 162.493 128.156C164.106 129.095 164.791 134.459 164.916 137.067C165.02 139.231 164.719 141.413 163.838 142.559Z"
          clip-rule="evenodd" />
        <path stroke="#D33833" stroke-width="2.5"
          d="M163.838 142.559C159.306 142.426 155.211 141.888 151.627 140.877C151.87 139.407 151.414 137.965 151.78 136.906C152.78 136.187 154.454 136.198 155.965 136.029C154.659 135.387 152.824 135.133 151.316 135.504C151.281 134.484 150.824 133.852 150.546 133.054C153.094 132.144 159.11 126.182 162.493 128.156C164.106 129.095 164.791 134.459 164.916 137.067C165.02 139.231 164.719 141.413 163.838 142.559Z" />
        <path fill="#D33833" fill-rule="evenodd"
          d="M142.166 135.151C142.154 135.494 142.139 135.839 142.126 136.185C140.711 137.115 138.426 137.103 136.873 137.885C139.163 137.985 140.965 138.536 142.524 139.313C142.49 140.177 142.457 141.04 142.423 141.904C139.829 143.679 137.46 146.324 134.406 147.989C132.962 148.776 127.895 150.803 126.359 150.445C125.489 150.243 125.411 149.164 125.064 148.148C124.323 145.97 122.619 142.505 122.47 139.228C122.281 135.088 121.863 128.151 126.324 129.003C129.923 129.69 134.109 131.348 136.895 132.87C138.598 133.801 139.583 134.952 142.166 135.151"
          clip-rule="evenodd" />
        <path stroke="#D33833" stroke-width="2.5"
          d="M142.166 135.151C142.154 135.494 142.139 135.839 142.126 136.185C140.711 137.115 138.426 137.103 136.873 137.885C139.163 137.985 140.965 138.536 142.524 139.313C142.49 140.177 142.457 141.04 142.423 141.904C139.829 143.679 137.46 146.324 134.406 147.989C132.962 148.776 127.895 150.803 126.359 150.445C125.489 150.243 125.411 149.164 125.064 148.148C124.323 145.97 122.619 142.505 122.47 139.228C122.281 135.088 121.863 128.151 126.324 129.003C129.923 129.69 134.109 131.348 136.895 132.87C138.598 133.801 139.583 134.952 142.166 135.151V135.151Z" />
        <path fill="#D33833" fill-rule="evenodd"
          d="M144.742 140.09C144.346 137.835 143.889 137.192 144.066 135.224C150.079 131.215 151.208 142.111 144.742 140.09Z"
          clip-rule="evenodd" />
        <path stroke="#D33833" stroke-width="2.5"
          d="M144.742 140.09C144.346 137.835 143.889 137.192 144.066 135.224C150.079 131.215 151.208 142.111 144.742 140.09Z" />
        <path fill="#EF3D3A" fill-rule="evenodd"
          d="M153.45 141.917C153.45 141.917 151.579 139.246 152.915 138.445C154.251 137.643 155.587 138.446 156.388 137.11C157.189 135.774 156.388 134.973 156.655 133.37C156.921 131.768 158.258 131.5 159.593 131.233C160.928 130.966 164.668 130.432 165.202 131.768L163.599 126.96L160.394 125.892L150.244 131.768L149.71 134.706V140.582"
          clip-rule="evenodd" />
        <path fill="#EF3D3A" fill-rule="evenodd"
          d="M125.405 150.732C125.084 146.563 124.745 142.401 124.367 138.236C123.801 132.018 125.86 133.103 131.25 133.103C132.073 133.103 136.319 134.085 136.623 134.706C138.079 137.681 134.187 137.02 138.301 139.264C141.773 141.157 147.908 138.114 146.505 133.905C145.72 132.969 142.414 133.613 141.228 132.998C139.142 131.917 137.055 130.835 134.969 129.753C132.314 128.376 126.178 126.368 123.348 128.292C116.176 133.17 123.8 145.357 126.359 150.445"
          clip-rule="evenodd" />
        <path fill="#231F20" fill-rule="evenodd"
          d="M132.433 56.0993C125.153 54.4038 121.536 59.1458 119.329 64.0641C117.359 63.5865 118.143 60.907 118.641 59.5417C119.944 55.9583 125.195 51.1883 129.486 51.8349C131.332 52.113 133.831 53.8013 132.433 56.0993"
          clip-rule="evenodd" />
        <path fill="#231F20" fill-rule="evenodd"
          d="M167.903 64.3894C168.018 64.3942 168.134 64.3982 168.248 64.403C169.894 67.8205 171.317 71.4407 173.393 74.4575C172.002 77.6955 162.865 80.5609 163.006 74.7468C164.982 73.883 168.394 74.5705 170.145 73.4672C169.132 70.6875 167.671 68.3213 167.903 64.3894"
          clip-rule="evenodd" />
        <path fill="#231F20" fill-rule="evenodd"
          d="M136.16 64.4783C137.721 67.3397 138.229 70.3461 140.448 72.5088C141.447 73.4823 143.39 74.669 142.427 77.3766C142.202 78.0152 140.557 79.4391 139.607 79.7187C136.139 80.7428 128.056 79.9302 130.793 75.6057C133.662 75.7395 137.518 77.4687 139.662 75.3862C138.015 72.754 135.08 67.5464 136.16 64.4783"
          clip-rule="evenodd" />
        <path fill="#231F20" fill-rule="evenodd"
          d="M166.601 93.5601C161.378 96.915 155.555 100.563 146.997 99.7171C145.168 98.1274 144.471 94.5897 146.248 92.2532C147.172 93.8429 146.591 96.7668 149.168 97.2067C154.024 98.0377 159.676 94.2364 163.168 92.9078C165.334 89.2564 162.982 87.9134 161.031 85.5633C157.036 80.7484 151.678 74.7804 151.873 67.5721C153.487 66.4014 153.627 69.359 153.858 69.8974C155.944 74.7788 161.193 81.0216 165.024 85.1995C165.965 86.2284 167.514 87.2155 167.686 87.8958C168.183 89.8742 166.393 92.2444 166.601 93.5601"
          clip-rule="evenodd" />
        <path fill="#231F20" fill-rule="evenodd"
          d="M97.7481 90.028C96.1111 89.0937 95.7214 84.9784 93.7995 84.8614C91.053 84.6947 91.5538 90.2003 91.5648 93.4199C89.6742 91.7035 89.3418 86.4191 90.7306 83.7051C89.1478 82.9279 88.441 84.5625 87.563 85.1386C88.6914 76.9415 99.5541 81.3365 97.7481 90.028Z"
          clip-rule="evenodd" />
        <path fill="#231F20" fill-rule="evenodd"
          d="M169.926 96.9735C167.495 101.601 164.056 106.697 156.922 106.845C156.777 105.351 156.666 103.077 156.93 102.177C162.384 101.653 165.751 98.8774 169.926 96.9735Z"
          clip-rule="evenodd" />
        <path fill="#231F20" fill-rule="evenodd"
          d="M135.749 99.9736C140.299 102.366 148.661 102.623 154.845 102.442C155.177 103.797 155.169 105.471 155.182 107.123C147.232 107.52 137.833 105.553 135.749 99.9736Z"
          clip-rule="evenodd" />
        <path fill="#231F20" fill-rule="evenodd"
          d="M134.884 104.435C138.031 112.335 148.845 111.425 157.964 111.208C157.563 112.233 156.692 113.445 155.611 113.883C152.688 115.072 144.628 115.974 140.571 113.82C137.999 112.452 136.345 109.361 134.936 107.55C134.255 106.675 130.865 104.44 134.884 104.435"
          clip-rule="evenodd" />
        <path fill="#81B0C4" fill-rule="evenodd"
          d="M166.221 148.011C162.529 154.335 158.996 160.83 154.615 166.408C156.452 161.008 157.238 151.97 157.515 145.08C161.357 143.282 164.648 145.485 166.221 148.011Z"
          clip-rule="evenodd" />
        <path fill="#231F20" fill-rule="evenodd"
          d="M186.09 170.74C181.956 171.567 179.051 175.585 175.019 175.327C177.235 172.203 181.119 170.885 186.09 170.74Z"
          clip-rule="evenodd" />
        <path fill="#231F20" fill-rule="evenodd"
          d="M187.913 177.209C184.544 177.565 180.586 178.111 177.169 177.829C178.787 175.358 185.02 176.211 187.913 177.209Z"
          clip-rule="evenodd" />
        <path fill="#231F20" fill-rule="evenodd"
          d="M189.081 182.787C185.294 182.869 180.587 182.793 176.988 182.491C179.117 180.204 186.625 181.643 189.081 182.787Z"
          clip-rule="evenodd" />
        <path fill="#DCD9D8" fill-rule="evenodd"
          d="M159.096 198.05C159.639 202.806 161.525 207.625 161.288 212.833C159.195 213.539 157.992 214.157 155.187 214.153C154.989 209.727 154.397 202.96 154.574 198.74C155.953 198.832 157.988 197.755 159.096 198.05Z"
          clip-rule="evenodd" />
        <path fill="#F0D6B7" fill-rule="evenodd"
          d="M152.991 127.961C151.09 129.202 149.47 130.752 147.644 132.077C143.595 132.277 141.385 131.796 138.409 129.471C138.458 129.284 138.757 129.368 138.768 129.139C143.103 131.071 148.614 128.352 152.991 127.961"
          clip-rule="evenodd" />
        <path fill="#81B0C4" fill-rule="evenodd"
          d="M130.234 157.51C131.425 152.349 136.092 149.676 140.33 146.834C144.704 152.386 147.365 159.525 150.294 166.414C143.373 164.328 136.3 160.942 130.234 157.51Z"
          clip-rule="evenodd" />
        <path fill="#231F20" fill-rule="evenodd"
          d="M154.574 198.74C154.397 202.96 154.989 209.727 155.187 214.153C157.992 214.157 159.195 213.539 161.288 212.833C161.525 207.625 159.639 202.806 159.096 198.05C157.988 197.755 155.953 198.832 154.574 198.74V198.74ZM110.892 174.743C112.742 191.749 115.422 206.044 120.336 221.103C131.242 224.414 144.39 224.703 154.03 221.715C152.26 213.215 153.034 202.868 151.999 193.798C151.219 186.981 151.617 180.122 150.548 173.167C138.867 170.737 122.356 172.599 110.892 174.743V174.743ZM153.31 173.273C153.211 180.577 153.637 187.781 154.195 195.094C156.999 194.673 158.902 194.392 161.508 193.821C160.662 186.781 160.766 178.859 159.042 172.631C157.05 172.65 155.296 172.608 153.31 173.273V173.273ZM167.537 172.096C166.206 171.791 164.656 172.084 163.385 172.109C163.982 178.063 165.433 184.632 165.943 190.882C167.944 190.944 169.013 190 170.659 189.683C170.747 184.197 170.179 176.639 167.537 172.096V172.096ZM189.078 191.778C193.249 190.765 195.872 185.657 194.705 180.411C193.922 176.885 192.528 170.247 191.036 167.991C189.933 166.323 186.944 164.139 184.557 165.667C180.674 168.154 173.833 168.876 171.002 171.885C172.421 176.613 172.862 183.107 173.448 189.097C178.299 189.399 184.268 187.762 188.302 189.499C185.485 190.412 181.831 190.419 179.397 191.749C181.386 192.709 186.042 192.515 189.078 191.778V191.778ZM150.294 166.414C147.365 159.525 144.704 152.386 140.33 146.834C136.092 149.676 131.425 152.349 130.234 157.51C136.3 160.942 143.373 164.328 150.294 166.414ZM157.515 145.08C157.238 151.97 156.452 161.008 154.615 166.408C158.996 160.83 162.529 154.335 166.221 148.011C164.647 145.485 161.357 143.282 157.515 145.08V145.08ZM149.329 142.171C147.67 141.993 146.261 144.079 144.103 143.177C143.609 143.724 143.159 144.316 142.655 144.849C147.421 150.593 149.587 158.742 153.268 165.492C155.244 159.008 155.016 151.904 155.451 144.828C152.737 145 151.231 142.373 149.329 142.171ZM144.066 135.224C143.889 137.191 144.346 137.835 144.742 140.09C151.208 142.111 150.079 131.215 144.066 135.224ZM136.895 132.87C134.109 131.348 129.923 129.69 126.324 129.003C121.863 128.15 122.281 135.088 122.47 139.228C122.619 142.505 124.323 145.97 125.064 148.148C125.411 149.164 125.489 150.243 126.358 150.445C127.895 150.803 132.962 148.776 134.406 147.989C137.46 146.324 139.829 143.679 142.423 141.904C142.457 141.04 142.49 140.177 142.524 139.313C140.965 138.536 139.163 137.985 136.873 137.885C138.426 137.103 140.711 137.115 142.126 136.185C142.139 135.839 142.154 135.494 142.166 135.151C139.582 134.952 138.598 133.801 136.895 132.87V132.87ZM110.281 128.036C107.969 130.384 116.767 133.584 119.569 133.756C119.553 132.271 120.415 130.87 120.242 129.804C116.915 129.22 112.542 129.606 110.281 128.036V128.036ZM138.768 129.139C138.757 129.368 138.458 129.284 138.409 129.471C141.385 131.796 143.594 132.277 147.644 132.077C149.47 130.752 151.09 129.202 152.991 127.961C148.614 128.352 143.103 131.071 138.768 129.139V129.139ZM164.916 137.067C164.791 134.459 164.106 129.095 162.494 128.156C159.11 126.181 153.094 132.144 150.546 133.054C150.824 133.852 151.281 134.484 151.316 135.504C152.824 135.133 154.659 135.387 155.965 136.029C154.454 136.198 152.78 136.187 151.78 136.906C151.414 137.965 151.87 139.407 151.627 140.877C155.211 141.888 159.306 142.426 163.838 142.559C164.719 141.413 165.02 139.231 164.916 137.067V137.067ZM106.388 130.307C105.662 129.789 100.75 123.397 100.077 123.663C91.1875 127.168 82.8757 133.23 75.4482 138.963C82.5299 154.159 85.3885 172.776 85.8937 190.719C94.006 194.514 101.131 199.983 112.14 200.554C110.866 191.542 109.703 183.501 108.98 175.015C106.214 173.849 102.246 175.068 99.6573 174.654C99.6353 171.534 103.61 173.288 103.942 171.19C104.191 169.603 101.754 169.483 102.548 166.985C104.571 167.72 105.634 169.345 107.792 169.955C109.764 165.641 107.765 158.008 108.049 154.402C108.103 153.725 108.387 150.652 109.903 151.191C111.246 151.668 109.827 159.365 109.974 162.778C110.108 165.922 109.594 168.965 110.867 170.938C121.505 169.49 132.314 168.555 143.824 168.239C141.292 167.152 138.284 166.124 134.986 164.265C133.198 163.257 127.562 161.16 127.046 159.462C126.223 156.756 129.206 155.315 129.716 152.995C124.347 155.924 123.299 150.188 122.029 146.125C120.878 142.445 120.223 139.696 119.941 137.573C115.315 135.368 110.37 133.135 106.388 130.307V130.307ZM160.218 124.436C167.624 120.845 168.959 137.858 166.056 143.339C166.505 144.974 168.048 145.599 168.678 147.069C164.545 154.473 159.954 161.384 155.737 168.7C158.874 166.748 163.355 168.351 167.046 166.889C168.396 166.356 169.373 163.267 170.394 160.796C173.204 153.997 176.155 145.425 177.467 138.937C177.764 137.459 178.571 134.238 178.39 132.922C178.067 130.566 174.871 128.82 173.245 127.363C170.25 124.672 168.364 122.304 165.239 119.788C163.973 121.659 161.254 122.915 160.218 124.436V124.436ZM89.4503 58.7564C85.9212 62.6394 86.6599 69.9151 87.0872 75.0913C93.4661 71.0785 101.933 75.4086 101.853 82.234C104.898 82.153 102.991 78.4303 102.44 76.032C100.639 68.1987 105.473 59.6883 102.659 52.5248C97.1955 52.9391 92.707 55.1707 89.4503 58.7564V58.7564ZM114.702 36.2195C106.712 38.484 96.4731 44.2893 93.1901 51.4663C95.7322 51.0969 97.4969 49.8149 100.005 49.6562C100.952 49.5945 102.194 50.0537 103.283 49.7828C105.454 49.2444 107.286 44.3774 108.924 42.5665C110.52 40.7981 112.439 40.0425 113.752 38.4303C114.595 38.0232 115.843 38.0513 115.89 36.7844C115.525 36.3934 115.14 36.0953 114.702 36.2195V36.2195ZM156.291 38.3493C147.998 33.6707 133.962 30.1514 125.141 34.5489C118.024 38.0977 108.402 43.9695 105.122 51.4102C108.187 58.5905 104.215 65.1699 103.961 72.4599C103.826 76.3389 105.787 79.7252 105.938 83.9479C104.889 85.6779 101.685 85.891 99.4679 85.7724C98.7214 82.0368 97.4146 77.8381 93.5679 77.4167C88.1248 76.8213 84.1449 81.3261 83.8977 86.0336C83.605 91.5697 88.1498 100.745 94.5913 100.108C97.0797 99.8622 97.691 97.3678 100.402 97.3934C101.872 100.325 98.1355 101.246 97.7511 103.343C97.651 103.885 98.061 106.002 98.2994 106.994C99.4695 111.829 102.078 118.085 104.645 121.765C107.903 126.433 114.305 127.137 121.192 127.595C122.422 124.945 126.953 125.163 129.906 125.856C126.367 124.454 123.078 121.057 120.351 118.05C117.22 114.599 114.048 110.898 113.887 106.389C119.805 114.599 124.694 121.768 135.455 125.38C143.598 128.111 153.107 124.128 159.364 119.735C161.96 117.909 163.51 115.011 165.355 112.359C172.26 102.427 175.481 88.2508 174.773 74.5104C174.481 68.8437 174.494 63.1963 172.593 59.3838C170.606 55.3974 163.885 51.8309 159.95 55.4367C159.221 51.5601 163.222 49.1627 167.921 50.5577C164.57 46.2332 161.054 41.0368 156.291 38.3493V38.3493ZM171.74 166.208C178.22 162.986 190.328 157.537 194.39 166.22C195.889 169.42 197.648 174.83 198.425 178.134C199.522 182.795 197.235 192.591 192.445 194.156C188.213 195.537 183.276 195.453 178.179 194.429C177.578 193.93 176.91 193.059 176.443 192.152C172.804 192.011 169.396 192.348 166.521 193.844C166.793 196.535 164.973 196.967 163.266 197.522C162.001 202.538 165.797 209.09 164.889 213.664C164.24 216.923 160.231 217.427 157.284 218.037C157.187 219.848 157.413 221.36 157.614 222.892C156.94 225.375 153.917 226.788 151.054 227.135C141.631 228.268 127.325 228.777 118.262 225.518C115.733 219.314 113.741 211.769 111.634 204.686C102.795 205.63 95.6461 200.872 88.9066 197.755C86.5732 196.673 83.3453 196.077 82.4736 194.22C81.6284 192.421 81.9743 188.975 81.7646 185.72C81.2309 177.405 80.774 169.385 78.5782 160.871C77.5923 157.051 75.8739 153.679 74.6751 149.998C73.5671 146.587 71.6312 142.37 71.1263 138.968C70.3776 133.925 75.1258 133.645 78.1619 131.46C82.8554 128.081 86.5394 126.212 91.6225 123.163C93.128 122.26 97.6682 119.974 98.1846 118.921C99.2112 116.833 96.4224 113.89 95.6768 112.254C94.4974 109.667 93.8824 107.469 93.7134 104.916C89.4494 104.242 86.217 101.704 84.2645 98.8429C81.0347 94.1074 78.7948 85.3461 81.5893 78.6819C81.8084 78.157 82.9014 77.125 83.0626 76.3189C83.3806 74.7316 82.4641 72.621 82.4071 70.9327C82.1135 62.2708 83.8727 54.8077 89.7038 52.1955C92.0711 42.7652 100.544 39.6298 108.526 34.9431C111.51 33.1915 114.799 32.0721 118.196 30.8221C130.382 26.3373 149.079 27.1819 159.193 34.8309C163.481 38.0745 170.336 44.9231 172.788 49.8814C179.264 62.9719 178.804 84.8493 174.275 100.773C173.666 102.911 172.783 106.054 171.55 108.622C170.69 110.415 168.018 114.003 168.342 115.587C168.676 117.224 174.435 121.596 175.67 122.787C177.893 124.932 182.118 127.779 182.46 130.486C182.828 133.366 181.191 137.307 180.361 140.087C177.589 149.363 174.884 157.938 171.74 166.208"
          clip-rule="evenodd" />
        <path fill="#F7E4CD" fill-rule="evenodd"
          d="M128.509 101.994C128.86 101.526 130.793 100.816 133.497 102.118C133.497 102.118 130.292 102.652 130.559 107.996L129.223 107.728C129.223 107.728 127.843 102.883 128.509 101.994"
          clip-rule="evenodd" />
        <path fill="#1D1919" fill-rule="evenodd"
          d="M151.927 147.925C151.927 148.736 151.269 149.393 150.458 149.393C149.647 149.393 148.989 148.736 148.989 147.925C148.989 147.114 149.647 146.455 150.458 146.455C151.269 146.455 151.927 147.114 151.927 147.925Z"
          clip-rule="evenodd" />
        <path fill="#1D1919" fill-rule="evenodd"
          d="M153.396 154.736C153.396 155.547 152.738 156.204 151.926 156.204C151.115 156.204 150.458 155.547 150.458 154.736C150.458 153.925 151.115 153.266 151.926 153.266C152.738 153.266 153.396 153.925 153.396 154.736Z"
          clip-rule="evenodd" />
      </g>
      <defs>
        <clipPath id="clip0_137_129">
          <rect width="144.872" height="200" fill="#fff" transform="translate(56 28)" />
        </clipPath>
      </defs>
    </svg>
  </g>

  <g transform="translate(300, 300)">
    <svg xmlns="http://www.w3.org/2000/svg" width="256" height="256" fill="none" viewBox="0 0 256 256">
      <rect width="256" height="256" fill="#242938" rx="60" />
      <g clip-path="url(#clip0_7_147)">
        <path fill="#fff" fill-rule="evenodd"
          d="M203.801 178.21C194.011 177.938 186.416 178.941 180.051 181.619C178.218 182.355 175.277 182.355 175.035 184.662C176.015 185.63 176.133 187.214 176.992 188.556C178.459 190.991 181.033 194.271 183.357 195.973L191.191 201.571C195.965 204.488 201.351 206.193 206.002 209.113C208.696 210.817 211.388 213.007 214.082 214.834C215.454 215.807 216.285 217.392 218 217.997V217.629C217.144 216.538 216.897 214.957 216.044 213.735L212.367 210.209C208.82 205.465 204.41 201.325 199.636 197.922C195.718 195.245 187.152 191.596 185.56 187.097L185.319 186.824C188.008 186.552 191.191 185.605 193.764 184.875C197.929 183.784 201.721 184.024 206.002 182.93L211.882 181.226V180.135C209.678 177.946 208.087 175.025 205.763 172.959C199.521 167.606 192.661 162.373 185.56 157.994C181.766 155.562 176.868 153.977 172.829 151.913C171.356 151.182 168.911 150.817 168.055 149.601C165.846 146.929 164.625 143.397 163.034 140.232L152.997 119.064C150.794 114.319 149.444 109.574 146.755 105.195C134.144 84.5124 120.431 71.9828 99.375 59.6932C94.8477 57.1382 89.4616 56.0393 83.7353 54.7032L74.5546 54.2124C72.5928 53.3616 70.6364 51.0493 68.9216 49.9531C61.9441 45.5739 43.9475 36.0847 38.8029 48.5897C35.4966 56.4974 43.7006 64.2824 46.4855 68.299C48.5708 71.0966 51.2597 74.2597 52.7332 77.4228C53.5563 79.4897 53.8307 81.682 54.6895 83.8717C56.6458 89.2243 58.4842 95.1878 61.0551 100.178C62.427 102.733 63.8675 105.413 65.5824 107.723C66.5619 109.086 68.2768 109.67 68.6417 111.859C66.9268 114.294 66.8089 117.94 65.8293 120.986C61.42 134.734 63.1349 151.766 69.377 161.888C71.3389 164.928 75.9622 171.622 82.2345 169.065C87.744 166.875 86.5148 159.941 88.1062 153.857C88.4766 152.399 88.2297 151.425 88.9623 150.449V150.722L93.9834 160.819C97.7781 166.78 104.391 172.986 109.897 177.125C112.833 179.315 115.16 183.089 118.831 184.425V184.057H118.59C117.854 182.966 116.751 182.475 115.772 181.624C113.569 179.435 111.121 176.757 109.406 174.325C104.267 167.513 99.7399 159.968 95.6983 152.183C93.7365 148.412 92.0216 144.275 90.4357 140.504C89.6949 139.043 89.6949 136.85 88.4739 136.125C86.6355 138.797 83.9466 141.115 82.5939 144.398C80.2672 149.628 80.0257 156.077 79.1697 162.769C78.6758 162.891 78.8953 162.769 78.6758 163.041C74.7631 162.071 73.4132 158.051 71.9453 154.648C68.274 146.01 67.6594 132.141 70.8422 122.164C71.6983 119.609 75.375 111.579 73.9071 109.146C73.1662 106.834 70.7242 105.498 69.3743 103.671C67.7829 101.359 66.0735 98.4409 64.9705 95.8859C62.0346 89.0689 60.5667 81.5293 57.3812 74.7151C55.9077 71.552 53.3396 68.2662 51.257 65.3486C48.9303 62.0628 46.3648 59.7505 44.5265 55.8593C43.9146 54.4959 43.0585 52.3309 44.0381 50.8693C44.2795 49.8959 44.7734 49.5059 45.7475 49.2878C47.3389 47.9244 51.8716 49.6532 53.463 50.3785C57.9903 52.2054 61.7849 53.907 65.5796 56.4592C67.2945 57.6754 69.1329 59.9877 71.3361 60.5985H73.9098C77.8279 61.4493 82.2317 60.8712 85.9002 61.9619C92.3893 64.0343 98.2637 67.0719 103.532 70.3604C119.567 80.4577 132.792 94.8143 141.725 111.971C143.193 114.769 143.805 117.324 145.155 120.244C147.729 126.208 150.912 132.289 153.477 138.132C156.051 143.85 158.498 149.694 162.17 154.438C164.008 156.993 171.35 158.329 174.654 159.668C177.104 160.759 180.896 161.741 183.105 163.077C187.264 165.632 191.427 168.552 195.342 171.35C197.298 172.806 203.423 175.849 203.787 178.276L203.801 178.21ZM78.9584 72.4873C77.267 72.4724 75.5809 72.6769 73.9427 73.0954V73.3681H74.1842C75.1637 75.315 76.8786 76.6538 78.1023 78.3581L80.9202 84.1989L81.1616 83.9262C82.8765 82.71 83.7353 80.7631 83.7353 77.8454C83 76.9947 82.8793 76.1412 82.2674 75.2904C81.5321 74.0743 79.9407 73.4635 78.9584 72.4928V72.4873Z"
          clip-rule="evenodd" />
      </g>
      <defs>
        <clipPath id="clip0_7_147">
          <rect width="180" height="180" fill="#fff" transform="translate(38 38)" />
        </clipPath>
      </defs>
    </svg>
  </g>

  <g transform="translate(600, 300)">
    <svg xmlns="http://www.w3.org/2000/svg" width="256" height="256" fill="none" viewBox="0 0 256 256">
      <rect width="256" height="256" fill="#242938" rx="60" />
      <path fill="#81CD39"
        d="M119.878 31.1164C124.797 28.3008 131.203 28.2883 136.117 31.1164C160.839 45.0855 185.569 59.0332 210.287 73.0108C214.937 75.6296 218.046 80.8038 217.999 86.1608V170.206C218.034 175.785 214.617 181.083 209.712 183.642C185.071 197.535 160.442 211.444 135.805 225.337C130.786 228.207 124.251 227.986 119.387 224.88C112 220.598 104.6 216.336 97.2121 212.058C95.7022 211.158 94.0004 210.442 92.9345 208.978C93.8766 207.708 95.5618 207.55 96.9309 206.995C100.014 206.014 102.847 204.44 105.679 202.913C106.396 202.423 107.27 202.611 107.957 203.049C114.274 206.671 120.536 210.399 126.874 213.986C128.226 214.767 129.595 213.73 130.751 213.086C154.931 199.419 179.141 185.805 203.318 172.134C204.214 171.703 204.709 170.752 204.636 169.771C204.653 142.046 204.64 114.317 204.645 86.5918C204.747 85.4785 204.103 84.455 203.096 83.999C178.541 70.1702 153.997 56.3205 129.446 42.4882C128.575 41.8893 127.426 41.8878 126.554 42.4837C102.002 56.3205 77.4638 70.1832 52.9124 84.011C51.9092 84.4675 51.236 85.4745 51.3554 86.5918C51.3596 114.317 51.3554 142.046 51.3554 169.775C51.2682 170.756 51.801 171.687 52.6906 172.109C59.2422 175.824 65.8024 179.513 72.3582 183.216C76.0516 185.203 80.5863 186.385 84.6555 184.862C88.2463 183.574 90.7633 179.909 90.6948 176.097C90.7288 148.534 90.6778 120.967 90.7203 93.4078C90.6309 92.1841 91.7912 91.1731 92.981 91.2885C96.1292 91.267 99.281 91.2461 102.429 91.297C103.743 91.267 104.647 92.5847 104.485 93.8174C104.472 121.555 104.519 149.293 104.464 177.03C104.472 184.423 101.435 192.467 94.5973 196.084C86.1737 200.447 75.7619 199.522 67.4399 195.338C60.2355 191.742 53.3603 187.498 46.2838 183.646C41.3661 181.101 37.966 175.782 38.0006 170.207V86.1608C37.949 80.6929 41.1825 75.4248 45.9764 72.8445C70.6133 58.9408 95.2461 45.0261 119.878 31.1164Z" />
      <path fill="#81CD39"
        d="M141.372 89.3351C152.117 88.6433 163.62 88.9255 173.289 94.2185C180.776 98.2754 184.926 106.789 185.058 115.106C184.849 116.227 183.676 116.846 182.605 116.769C179.488 116.765 176.369 116.812 173.252 116.748C171.929 116.799 171.161 115.58 170.995 114.411C170.099 110.431 167.928 106.49 164.183 104.57C158.433 101.692 151.767 101.837 145.497 101.897C140.92 102.139 135.998 102.536 132.12 105.227C129.143 107.266 128.239 111.382 129.301 114.697C130.303 117.077 133.05 117.845 135.299 118.553C148.248 121.94 161.97 121.602 174.672 126.059C179.931 127.876 185.075 131.409 186.875 136.915C189.23 144.295 188.198 153.115 182.947 159.039C178.689 163.914 172.488 166.568 166.303 168.009C158.075 169.844 149.536 169.891 141.18 169.076C133.323 168.18 125.146 166.116 119.081 160.763C113.894 156.259 111.361 149.241 111.612 142.469C111.672 141.325 112.811 140.527 113.907 140.621C117.046 140.596 120.186 140.587 123.325 140.626C124.58 140.536 125.509 141.62 125.574 142.802C126.152 146.593 127.577 150.573 130.884 152.82C137.264 156.937 145.271 156.655 152.577 156.77C158.63 156.502 165.425 156.421 170.364 152.42C172.97 150.138 173.742 146.32 173.038 143.036C172.275 140.263 169.374 138.971 166.883 138.126C154.1 134.083 140.224 135.55 127.565 130.977C122.425 129.161 117.455 125.727 115.481 120.447C112.726 112.974 113.988 103.73 119.789 98.0061C125.445 92.312 133.609 90.1192 141.372 89.3346V89.3351" />
    </svg>
  </g>

  <g transform="translate(900, 300)">
    <svg width="256" height="256" viewBox="0 0 256 256" fill="none" xmlns="http://www.w3.org/2000/svg">
      <rect width="256" height="256" rx="60" fill="#242938" />
      <path d="M128.222 18L225.443 73V183L128.222 238L31 183V73L128.222 18Z" fill="white" />
      <path
        d="M208.082 179.205L131.43 222.563V188.793L179.188 162.522L208.082 179.205ZM213.325 174.457V83.7798L185.275 99.9682V158.25L213.325 174.457ZM48.05 179.205L124.702 222.563V188.793L76.9433 162.522L48.05 179.205V179.205ZM42.8066 174.457V83.7798L70.8566 99.9682V158.25L42.8066 174.457V174.457ZM46.0883 77.9132L124.702 33.4365V66.0882L74.34 93.7899L73.955 94.0099L46.0883 77.9132V77.9132ZM210.043 77.9132L131.43 33.4365V66.0882L181.792 93.7899L182.177 94.0099L210.043 77.9132V77.9132Z"
        fill="#8ED6FB" />
      <path
        d="M124.702 181.111L77.585 155.206V103.873L124.702 131.08V181.111ZM131.43 181.111L178.547 155.206V103.873L131.43 131.08V181.111ZM80.775 97.933L128.075 71.918L175.375 97.933L128.075 125.25L80.775 97.933V97.933Z"
        fill="#1C78C0" />
    </svg>

  </g>

  <g transform="translate(1200, 300)">
    <svg width="256" height="256" viewBox="0 0 256 256" fill="none" xmlns="http://www.w3.org/2000/svg">
      <rect width="256" height="256" rx="60" fill="#242938" />
      <path
        d="M124.228 229L90.623 208.89V90.31L40 120.459L40.123 75.545L124.228 26V229ZM131.784 26V229L165.393 208.89V151.781L190.763 166.895L190.612 127.833L165.393 112.988V90.31L216 120.459L215.878 75.545L131.784 26Z"
        fill="#FF6F00" />
    </svg>

  </g>

  <g transform="translate(1500, 300)">
    <svg width="256" height="256" viewBox="0 0 256 256" fill="none" xmlns="http://www.w3.org/2000/svg">
      <rect width="256" height="256" rx="60" fill="#FF6C37" />
      <path d="M169.061 88.6123L118.521 139.153L104.268 124.901C153.971 75.1986 158.882 79.5101 169.061 88.6123Z"
        fill="#EEEEEE" />
      <path
        d="M118.521 140.35C118.161 140.35 117.922 140.231 117.682 139.991L103.31 125.739C102.831 125.26 102.831 124.542 103.31 124.063C153.851 73.5211 159.12 78.3118 169.78 87.8932C170.02 88.1328 170.139 88.3724 170.139 88.7317C170.139 89.0911 170.02 89.3306 169.78 89.5694L119.239 139.991C119.12 140.231 118.76 140.35 118.521 140.35ZM105.945 124.901L118.521 137.476L167.265 88.7317C158.403 80.8266 152.414 78.4316 105.945 124.901Z"
        fill="#FF6C37" />
      <path d="M133.012 153.645L119.239 139.872L169.78 89.3315C183.314 102.984 163.073 125.141 133.012 153.645Z"
        fill="#EEEEEE" />
      <path
        d="M133.012 154.843C132.652 154.843 132.414 154.723 132.174 154.483L118.401 140.71C118.161 140.471 118.161 140.231 118.161 139.872C118.161 139.512 118.281 139.273 118.521 139.033L169.061 88.4927C169.54 88.0135 170.259 88.0135 170.738 88.4927C173.852 91.3668 175.529 95.4387 175.409 99.6305C175.17 112.924 160.079 129.811 133.97 154.483C133.611 154.723 133.251 154.843 133.012 154.843ZM120.916 139.872C128.58 147.656 131.815 150.771 133.012 151.968C153.133 132.806 172.654 113.164 172.774 99.6305C172.894 96.5168 171.697 93.4031 169.66 91.0074L120.916 139.872Z"
        fill="#FF6C37" />
      <path
        d="M104.508 125.26L114.688 135.44C114.927 135.68 114.927 135.919 114.688 136.159C114.568 136.279 114.568 136.279 114.449 136.279L93.3693 140.83C92.292 140.95 91.3337 140.231 91.0942 139.153C90.9744 138.554 91.214 137.956 91.5733 137.596L103.789 125.38C104.029 125.14 104.388 125.02 104.508 125.26Z"
        fill="#EEEEEE" />
      <path
        d="M93.01 142.028C91.214 142.028 89.8963 140.59 89.8963 138.793C89.8963 137.956 90.2557 137.117 90.8546 136.518L103.07 124.302C103.789 123.703 104.748 123.703 105.466 124.302L115.646 134.482C116.364 135.081 116.364 136.159 115.646 136.877C115.406 137.117 115.167 137.237 114.807 137.357L93.7287 141.908C93.4891 141.908 93.2495 142.028 93.01 142.028ZM104.149 126.577L92.4118 138.314C92.1723 138.554 92.0525 138.913 92.292 139.272C92.4118 139.632 92.7704 139.752 93.1298 139.632L112.891 135.32L104.149 126.577Z"
        fill="#FF6C37" />
      <path
        d="M195.769 60.5877C188.104 53.1625 175.768 53.4021 168.342 61.1867C160.917 68.9712 161.157 81.1871 168.941 88.6131C175.289 94.7207 184.871 95.7988 192.416 91.2476L178.762 77.5943L195.769 60.5877Z"
        fill="#EEEEEE" />
      <path
        d="M182.355 95.1996C170.978 95.1996 161.756 85.9776 161.756 74.6002C161.756 63.222 170.978 54 182.355 54C187.625 54 192.775 56.0364 196.607 59.749C196.847 59.9886 196.967 60.2281 196.967 60.5875C196.967 60.9469 196.847 61.1864 196.607 61.426L180.439 77.5941L193.134 90.2891C193.614 90.7683 193.614 91.487 193.134 91.9661C193.015 92.0859 193.015 92.0859 192.895 92.2057C189.781 94.1215 186.068 95.1996 182.355 95.1996ZM182.355 56.5155C172.295 56.5155 164.151 64.6595 164.271 74.72C164.271 84.7805 172.414 92.9244 182.475 92.8047C185.23 92.8047 187.984 92.2057 190.499 90.888L177.924 78.4326C177.684 78.193 177.565 77.9534 177.565 77.5941C177.565 77.2347 177.684 76.9951 177.924 76.7556L193.973 60.7073C190.739 57.953 186.667 56.5155 182.355 56.5155Z"
        fill="#FF6C37" />
      <path
        d="M196.128 60.9471L195.889 60.7075L178.762 77.5943L192.296 91.1279C193.614 90.2894 194.93 89.3319 196.009 88.2538C203.673 80.708 203.673 68.4921 196.128 60.9471Z"
        fill="#EEEEEE" />
      <path
        d="M192.416 92.4448C192.056 92.4448 191.817 92.325 191.577 92.0855L177.924 78.4321C177.684 78.1925 177.565 77.953 177.565 77.5936C177.565 77.2342 177.684 76.9947 177.924 76.7551L194.93 59.7485C195.41 59.2694 196.128 59.2694 196.607 59.7485L196.967 59.9881C204.991 68.0122 204.991 80.9469 197.087 89.0916C195.889 90.2887 194.571 91.3667 193.134 92.2053C192.775 92.325 192.536 92.4448 192.416 92.4448ZM180.439 77.5936L192.536 89.6897C193.494 89.0916 194.452 88.2531 195.17 87.5344C201.997 80.7073 202.356 69.5695 195.769 62.3838L180.439 77.5936Z"
        fill="#FF6C37" />
      <path
        d="M171.098 90.7674C168.223 87.8933 163.552 87.8933 160.678 90.7674L115.526 135.919L123.072 143.464L170.858 101.547C173.972 98.9113 174.211 94.2404 171.577 91.1267C171.337 91.007 171.217 90.8872 171.098 90.7674Z"
        fill="#EEEEEE" />
      <path
        d="M122.952 144.662C122.593 144.662 122.353 144.542 122.113 144.303L114.568 136.758C114.089 136.279 114.089 135.56 114.568 135.081L159.719 89.929C163.073 86.5758 168.462 86.5758 171.816 89.929C175.17 93.283 175.17 98.6719 171.816 102.026C171.697 102.146 171.577 102.265 171.457 102.385L123.67 144.303C123.551 144.542 123.311 144.662 122.952 144.662ZM117.203 135.919L123.072 141.788L170.02 100.588C172.654 98.4323 172.894 94.4801 170.738 91.8456C168.582 89.2111 164.63 88.9715 161.995 91.1269C161.876 91.2467 161.756 91.3664 161.516 91.4862L117.203 135.919Z"
        fill="#FF6C37" />
      <path
        d="M80.9139 187.3C80.4347 187.539 80.1951 188.018 80.3149 188.497L82.3513 197.121C82.8305 198.318 82.1117 199.756 80.7941 200.115C79.8358 200.474 78.7585 200.115 78.1596 199.397L64.9854 186.342L107.981 143.346L122.832 143.585L132.892 153.646C130.497 155.682 116.005 169.694 80.9139 187.3Z"
        fill="#EEEEEE" />
      <path
        d="M79.9556 201.311C78.9981 201.311 78.0398 200.952 77.4408 200.234L64.3864 187.179C64.1469 186.94 64.0271 186.7 64.0271 186.341C64.0271 185.982 64.1469 185.742 64.3864 185.502L107.382 142.507C107.622 142.267 107.981 142.147 108.221 142.147L123.072 142.387C123.431 142.387 123.67 142.507 123.909 142.746L133.97 152.806C134.21 153.046 134.329 153.405 134.329 153.764C134.329 154.124 134.21 154.363 133.85 154.603L133.012 155.322C120.317 166.459 103.07 177.598 81.6326 188.257L83.669 196.76C84.0275 198.317 83.3096 199.994 81.8722 200.832C81.1534 201.191 80.5545 201.311 79.9556 201.311ZM66.7814 186.341L79.1178 198.557C79.4764 199.156 80.1951 199.395 80.7941 199.036C81.393 198.677 81.6326 197.958 81.2732 197.359L79.2376 188.736C78.9981 187.658 79.4764 186.7 80.4347 186.221C101.633 175.562 118.76 164.544 131.335 153.645L122.473 144.782L108.7 144.542L66.7814 186.341Z"
        fill="#FF6C37" />
      <path
        d="M54.8051 196.641L65.1052 186.341L80.4347 201.671L56.0029 199.995C54.9249 199.875 54.2061 198.917 54.3259 197.838C54.3259 197.359 54.4457 196.88 54.8051 196.641Z"
        fill="#EEEEEE" />
      <path
        d="M80.4347 202.749L55.8831 201.072C54.0863 200.952 52.8884 199.396 53.0082 197.599C53.128 196.88 53.3676 196.162 53.9665 195.683L64.2666 185.383C64.7458 184.904 65.4645 184.904 65.9429 185.383L81.2732 200.713C81.6326 201.072 81.7524 201.551 81.5128 202.031C81.2732 202.51 80.9139 202.749 80.4347 202.749ZM65.1051 188.018L55.6435 197.479C55.2842 197.719 55.2842 198.318 55.6435 198.557C55.7633 198.677 55.8831 198.797 56.1227 198.797L77.321 200.234L65.1051 188.018Z"
        fill="#FF6C37" />
      <path
        d="M103.789 148.855C103.07 148.855 102.591 148.256 102.591 147.657C102.591 147.298 102.711 147.059 102.951 146.819L114.568 135.202C115.047 134.722 115.766 134.722 116.245 135.202L123.79 142.747C124.149 143.106 124.269 143.465 124.149 143.945C124.029 144.304 123.67 144.663 123.192 144.783L104.029 148.855C103.909 148.855 103.789 148.855 103.789 148.855ZM115.406 137.717L107.502 145.622L120.436 142.866L115.406 137.717Z"
        fill="#FF6C37" />
      <path
        d="M122.832 143.584L109.658 146.459C108.7 146.699 107.741 146.1 107.502 145.142C107.382 144.543 107.502 143.944 107.981 143.465L115.286 136.159L122.832 143.584Z"
        fill="#EEEEEE" />
      <path
        d="M109.418 147.657C107.741 147.657 106.424 146.34 106.424 144.663C106.424 143.825 106.783 143.106 107.262 142.508L114.568 135.202C115.047 134.722 115.766 134.722 116.245 135.202L123.79 142.747C124.149 143.106 124.269 143.465 124.149 143.945C124.029 144.304 123.67 144.663 123.192 144.783L110.017 147.657C109.778 147.657 109.538 147.657 109.418 147.657ZM115.406 137.717L108.939 144.184C108.7 144.424 108.7 144.663 108.819 144.903C108.939 145.142 109.179 145.262 109.538 145.262L120.556 142.866L115.406 137.717Z"
        fill="#FF6C37" />
      <path
        d="M196.248 72.4434C196.009 71.7254 195.17 71.3661 194.451 71.6057C193.733 71.8444 193.374 72.6829 193.614 73.4017C193.614 73.5215 193.733 73.6412 193.733 73.761C194.451 75.1985 194.213 76.9945 193.254 78.3121C192.775 78.9111 192.895 79.7496 193.374 80.2287C193.973 80.7071 194.811 80.5881 195.29 79.9892C197.087 77.7132 197.446 74.8391 196.248 72.4434Z"
        fill="#FF6C37" />
    </svg>

  </g>

  <g transform="translate(1800, 300)">
    <svg xmlns="http://www.w3.org/2000/svg" width="256" height="256" fill="none" viewBox="0 0 256 256">
      <rect width="256" height="256" fill="#242938" rx="60" />
      <path fill="#000"
        d="M17 120H237.641V193.109C237.641 210.289 223.605 223.445 205.285 223.445H49.3555C31.0312 223.445 17 210.289 17 193.109V120Z" />
      <path fill="#FFB13B" stroke="#000" stroke-width="28.695"
        d="M61.6328 108.908C54.8086 102.506 43.7422 102.506 36.918 108.908C30.0938 115.307 30.0938 125.682 36.918 132.084C43.7422 138.482 54.8086 138.482 61.6328 132.084H192.848C199.676 138.482 210.738 138.482 217.566 132.084C224.391 125.682 224.391 115.307 217.566 108.908C210.738 102.506 199.676 102.506 192.848 108.908H61.6328Z" />
      <path fill="#FFB13B" stroke="#000" stroke-width="28.725"
        d="M89.5898 68.8027C89.5898 59.7481 81.7656 52.4121 72.1133 52.4121C62.457 52.4121 54.6328 59.7481 54.6328 68.8027C54.6328 77.8535 62.457 85.1894 72.1133 85.1894L164.895 172.189C164.895 181.24 172.719 188.576 182.371 188.576C192.023 188.576 199.848 181.24 199.848 172.189C199.848 163.139 192.023 155.803 182.371 155.803L89.5898 68.8027Z" />
      <path fill="#FFB13B" stroke="#000" stroke-width="28.695"
        d="M139.602 58.9785C146.426 52.5762 146.426 42.2012 139.602 35.7988C132.773 29.4004 121.707 29.4004 114.883 35.7988C108.059 42.2012 108.059 52.5762 114.883 58.9785L114.883 182.014C108.059 188.412 108.059 198.791 114.883 205.189C121.707 211.592 132.773 211.592 139.602 205.189C146.426 198.791 146.426 188.412 139.602 182.014V58.9785Z" />
      <path fill="#FFB13B" stroke="#000" stroke-width="28.725"
        d="M182.371 85.1895C192.023 85.1895 199.848 77.8536 199.848 68.8028C199.848 59.7481 192.023 52.4122 182.371 52.4122C172.719 52.4122 164.895 59.7481 164.895 68.8028L72.1133 155.803C62.457 155.803 54.6328 163.139 54.6328 172.189C54.6328 181.24 62.457 188.576 72.1133 188.576C81.7656 188.576 89.5898 181.24 89.5898 172.189L182.371 85.1895Z" />
      <path fill="#FFB13B"
        d="M61.6328 108.908C54.8086 102.506 43.7422 102.506 36.918 108.908C30.0938 115.307 30.0938 125.682 36.918 132.084C43.7422 138.482 54.8086 138.482 61.6328 132.084H192.848C199.676 138.482 210.738 138.482 217.566 132.084C224.391 125.682 224.391 115.307 217.566 108.908C210.738 102.506 199.676 102.506 192.848 108.908H61.6328Z" />
      <path fill="#FFB13B"
        d="M89.5898 68.8027C89.5898 59.748 81.7656 52.4121 72.1133 52.4121C62.457 52.4121 54.6328 59.748 54.6328 68.8027C54.6328 77.8535 62.457 85.1895 72.1133 85.1895L164.895 172.189C164.895 181.24 172.719 188.576 182.371 188.576C192.023 188.576 199.848 181.24 199.848 172.189C199.848 163.139 192.023 155.803 182.371 155.803L89.5898 68.8027Z" />
      <path fill="#FFB13B"
        d="M139.602 58.9785C146.426 52.5762 146.426 42.2012 139.602 35.7988C132.773 29.4004 121.707 29.4004 114.883 35.7988C108.059 42.2012 108.059 52.5762 114.883 58.9785V182.014C108.059 188.412 108.059 198.791 114.883 205.189C121.707 211.592 132.773 211.592 139.602 205.189C146.426 198.791 146.426 188.412 139.602 182.014V58.9785Z" />
      <path fill="#FFB13B"
        d="M182.371 85.1895C192.023 85.1895 199.848 77.8535 199.848 68.8027C199.848 59.748 192.023 52.4121 182.371 52.4121C172.719 52.4121 164.895 59.748 164.895 68.8027L72.1133 155.803C62.457 155.803 54.6328 163.139 54.6328 172.189C54.6328 181.24 62.457 188.576 72.1133 188.576C81.7656 188.576 89.5898 181.24 89.5898 172.189L182.371 85.1895Z" />
      <path fill="#000" fill-opacity=".9"
        d="M17 121H237.641V194.109C237.641 211.289 223.605 224.445 205.285 224.445H49.3555C31.0312 224.445 17 211.289 17 194.109V121Z" />
      <path fill="#fff"
        d="M50.0273 172.135C44.8516 167.283 41.6484 160.584 41.6484 153.186C41.6484 138.381 54.457 126.377 70.2383 126.377C86.0273 126.377 98.832 138.381 98.832 153.186H82.0859C82.0859 147.053 76.7773 142.084 70.2383 142.084C63.6992 142.084 58.3984 147.053 58.3984 153.186C58.3984 156.248 59.7266 159.025 61.8594 161.025H61.8672C64.0117 163.045 65.7969 163.627 70.2383 164.291C78.1367 165.061 85.2813 167.291 90.457 172.143C95.6328 176.998 98.832 183.697 98.832 191.096C98.832 205.9 86.0273 217.908 70.2383 217.908C54.457 217.908 41.6484 205.9 41.6484 191.096H58.3984C58.3984 197.229 63.6992 202.205 70.2383 202.205C76.7773 202.205 82.0859 197.229 82.0859 191.096C82.0859 188.033 80.7617 185.264 78.625 183.256H78.6172C76.4727 181.244 73.3945 180.553 70.2383 179.998V179.994C62.582 178.893 55.2031 176.99 50.0273 172.135Z" />
      <path fill="#fff"
        d="M156.016 126.377L135.789 217.908H119.043L98.832 126.377H115.582L127.434 179.986L139.266 126.377H156.016Z" />
      <path fill="#fff"
        d="M184.613 164.291H213.199V191.096H213.207C213.207 205.904 200.402 217.912 184.613 217.912C168.82 217.912 156.023 205.904 156.023 191.096V153.186H156.016C156.016 138.381 168.82 126.381 184.613 126.381C200.395 126.381 213.199 138.381 213.199 153.186H196.453C196.453 147.061 191.145 142.084 184.613 142.084C178.07 142.084 172.77 147.061 172.77 153.186V191.096C172.77 197.229 178.07 202.201 184.613 202.201C191.145 202.201 196.445 197.229 196.453 191.104V180.002H184.613V164.291Z" />
    </svg>
  </g>

  <g transform="translate(2100, 300)">
    <svg xmlns="http://www.w3.org/2000/svg" width="256" height="256" fill="none" viewBox="0 0 256 256">
      <rect width="256" height="256" fill="#242938" rx="60" />
      <g clip-path="url(#clip0_4_180)">
        <path fill="#0ACF83"
          d="M94.3467 228C112.747 228 127.68 213.067 127.68 194.667V161.333H94.3467C75.9467 161.333 61.0133 176.267 61.0133 194.667C61.0133 213.067 75.9467 228 94.3467 228Z" />
        <path fill="#A259FF"
          d="M61.0133 128C61.0133 109.6 75.9467 94.6667 94.3467 94.6667H127.68V161.333H94.3467C75.9467 161.333 61.0133 146.4 61.0133 128Z" />
        <path fill="#F24E1E"
          d="M61.0133 61.3333C61.0133 42.9333 75.9467 28 94.3467 28H127.68V94.6667H94.3467C75.9467 94.6667 61.0133 79.7333 61.0133 61.3333Z" />
        <path fill="#FF7262"
          d="M127.68 28H161.013C179.413 28 194.347 42.9333 194.347 61.3333C194.347 79.7333 179.413 94.6667 161.013 94.6667H127.68V28Z" />
        <path fill="#1ABCFE"
          d="M194.347 128C194.347 146.4 179.413 161.333 161.013 161.333C142.613 161.333 127.68 146.4 127.68 128C127.68 109.6 142.613 94.6667 161.013 94.6667C179.413 94.6667 194.347 109.6 194.347 128Z" />
      </g>
      <defs>
        <clipPath id="clip0_4_180">
          <rect width="133.36" height="200" fill="#fff" transform="translate(61 28)" />
        </clipPath>
      </defs>
    </svg>
  </g>

</svg>